<svg width="93" height="42" viewBox="0 0 93 42" fill="none" xmlns="http://www.w3.org/2000/svg">
<mask id="mask0_521_86" style="mask-type:luminance" maskUnits="userSpaceOnUse" x="2" y="0" width="43" height="42">
<path d="M44.627 0H2.62695V42H44.627V0Z" fill="white"/>
</mask>
<g mask="url(#mask0_521_86)">
<path d="M35.1325 27.9548C36.6292 29.9418 38.1726 31.975 39.716 34.0082C36.6292 37.6125 32.794 39.923 28.1637 40.8934C23.0189 41.9562 18.1548 41.1706 13.431 38.5829C17.6403 35.4869 21.7561 32.4371 25.9187 29.3873C26.8541 30.2652 27.7428 31.1432 28.6314 31.975C29.6136 32.8992 29.2394 32.9454 30.5022 32.2522C32.2327 31.2818 33.6826 29.9418 34.8051 28.3244C34.8519 28.232 34.9454 28.1396 34.9922 28.0472C34.9454 28.0472 34.9922 28.0472 35.1325 27.9548ZM16.7517 32.0212C15.5824 32.8992 14.5067 33.6847 13.431 34.5165C12.6359 35.1172 11.8408 35.6717 11.0457 36.2725C10.7183 36.5497 10.4844 36.5497 10.1102 36.2262C6.5557 33.084 4.31071 29.2024 3.46884 24.5815C2.62697 19.9143 3.3753 15.4782 5.62029 11.2732C5.66706 11.1808 5.7606 11.0421 5.80737 10.9497C5.80737 10.9035 5.85414 10.9035 5.94768 10.8573C9.03454 14.8775 12.1682 18.8977 15.255 22.9179C15.1615 23.0566 15.1147 23.149 15.0212 23.2414C14.0857 24.2118 13.1503 25.1822 12.1682 26.1064C11.8875 26.3837 11.8408 26.6147 12.0278 26.9382C13.01 28.7865 14.3664 30.3114 16.0501 31.5591C16.284 31.6977 16.471 31.8364 16.7517 32.0212ZM34.1971 3.32518C32.7004 4.388 31.2038 5.45081 29.7071 6.46742C27.1347 8.26958 24.5624 10.118 22.0367 11.9201C21.7094 12.1512 21.4755 12.1974 21.1949 11.8739C20.353 10.9959 19.4644 10.2104 18.6225 9.3324C18.3886 9.10135 18.1548 9.05514 17.8274 9.19377C15.8163 10.2104 14.2261 11.6429 12.9165 13.445C12.8229 13.5374 12.7294 13.6761 12.6359 13.8147C11.8875 12.8443 11.186 11.9663 10.4844 11.0421C9.7361 10.0717 9.03454 9.10135 8.33298 8.17717C8.09913 7.8537 8.05236 7.62265 8.37975 7.29919C11.9811 3.37139 16.4243 1.06092 21.7561 0.506412C25.9655 0.0443183 29.9877 0.876087 33.7294 2.86309C33.8697 2.95551 34.01 3.00172 34.1503 3.09414C34.1503 3.23276 34.1503 3.27897 34.1971 3.32518ZM41.8207 31.0508C40.8385 29.8031 39.9499 28.6479 39.0612 27.4927C37.0033 24.8125 34.9454 22.0862 32.8408 19.406C32.5601 19.0364 32.5601 18.8053 32.8875 18.4819C33.7762 17.6039 34.618 16.7259 35.5067 15.8479C35.7405 15.6169 35.8341 15.3858 35.647 15.0624C34.618 13.1216 33.2149 11.5042 31.3909 10.2104C31.2506 10.118 31.1102 9.97933 30.9232 9.88691C31.0635 9.74828 31.2038 9.65586 31.2973 9.56345C33.0746 8.22337 34.8519 6.92951 36.6292 5.58944C36.9098 5.35839 37.1436 5.26597 37.471 5.58944C41.9143 9.56345 44.2995 14.5078 44.5334 20.4689C44.6269 23.9346 43.8318 27.2154 42.2416 30.3114C42.1013 30.4963 41.961 30.7273 41.8207 31.0508Z" fill="#36BEFF"/>
</g>
<path d="M73.6805 21.37C73.6765 23.1952 73.5068 24.999 72.978 26.755C72.6718 27.7717 72.2512 28.7362 71.6435 29.6121C70.4224 31.3726 68.7527 32.3899 66.6191 32.634C65.486 32.7635 64.3685 32.6931 63.2762 32.3542C61.5891 31.8307 60.3311 30.761 59.4138 29.2713C58.6916 28.0984 58.2618 26.8135 57.9934 25.4708C57.6146 23.5764 57.5527 21.6635 57.6706 19.7405C57.7575 18.3265 57.9754 16.9365 58.4173 15.5877C58.8195 14.3601 59.3928 13.2249 60.2665 12.2588C61.4276 10.9743 62.8819 10.267 64.5922 10.0646C65.6622 9.93785 66.7212 9.99179 67.7616 10.2783C69.3622 10.7189 70.6211 11.6469 71.575 12.9966C72.4085 14.1757 72.9055 15.499 73.2258 16.896C73.5635 18.3682 73.6787 19.8636 73.6805 21.37ZM68.3818 13.4315C68.3415 13.3834 68.3257 13.3566 68.3028 13.3383C68.2391 13.288 68.1739 13.2395 68.1069 13.1941C67.4614 12.7553 66.7437 12.5228 65.969 12.474C64.6156 12.3887 63.4195 12.7522 62.4519 13.743C61.9039 14.304 61.5224 14.9699 61.2295 15.691C60.7745 16.8112 60.5496 17.9864 60.4424 19.1828C60.2842 20.9479 60.293 22.7128 60.5554 24.4694C60.7014 25.4461 60.9391 26.3997 61.3456 27.3045C61.3761 27.3727 61.4215 27.4343 61.4837 27.5388C63.7986 22.8048 66.0925 18.1137 68.3818 13.4315ZM62.8816 29.3756C63.0032 29.4594 63.0928 29.5237 63.1851 29.584C63.894 30.0466 64.6781 30.2575 65.518 30.2731C67.0424 30.3014 68.2833 29.733 69.2116 28.5098C69.5328 28.0868 69.7858 27.6245 69.9933 27.1375C70.4836 25.9861 70.7238 24.7729 70.8359 23.5353C70.9938 21.7906 70.9837 20.0462 70.7235 18.3094C70.5787 17.3421 70.3377 16.4001 69.9369 15.5041C69.9058 15.435 69.8641 15.3704 69.7986 15.2518C67.4818 19.9822 65.1895 24.6626 62.8816 29.3756Z" fill="white"/>
<path d="M86.6747 24.1467C88.2947 26.858 89.9063 29.5548 91.5416 32.2918H88.5528C87.2659 30.1229 85.9618 27.9256 84.6535 25.7201H83.5302C82.2045 27.9088 80.8749 30.104 79.5447 32.3003H76.7086C76.701 32.2814 76.6961 32.2723 76.694 32.2625C76.6919 32.2531 76.6888 32.2406 76.6931 32.2336C78.3001 29.5761 79.9073 26.919 81.5262 24.243C80.0719 21.7044 78.6161 19.163 77.1383 16.5833H79.964C81.1577 18.6517 82.3545 20.7249 83.5525 22.8009H84.6932C85.9116 20.7371 87.1385 18.6587 88.3639 16.583H91.128C89.6335 19.1213 88.1622 21.62 86.6747 24.1467Z" fill="white"/>
</svg>
