<svg width="107" height="42" viewBox="0 0 107 42" fill="none" xmlns="http://www.w3.org/2000/svg">
<path d="M64.3039 32.9755L54.6159 9.47552C54.5398 9.26126 54.4996 9.03589 54.4969 8.80852C54.4788 8.32771 54.6497 7.85893 54.9729 7.50252C55.1391 7.33239 55.3397 7.19976 55.5613 7.11353C55.783 7.02729 56.0205 6.98945 56.2579 7.00252C56.6177 7.00721 56.9671 7.12357 57.2579 7.33552C57.5627 7.56206 57.801 7.86633 57.9479 8.21652L67.1599 31.2165L76.3719 8.21652C76.5188 7.86633 76.7571 7.56206 77.0619 7.33552C77.3527 7.12357 77.7021 7.00721 78.0619 7.00252C78.2994 6.98945 78.5369 7.02729 78.7585 7.11353C78.9801 7.19976 79.1807 7.33239 79.3469 7.50252C79.6709 7.85968 79.8418 8.32969 79.8229 8.81152C79.8202 9.03889 79.78 9.26425 79.7039 9.47852L70.0159 32.9785C69.85 33.4953 69.5269 33.9475 69.0916 34.2718C68.6563 34.5961 68.1306 34.7764 67.5879 34.7875H66.7309C66.188 34.776 65.6623 34.5951 65.2271 34.2703C64.792 33.9454 64.4692 33.4927 64.3039 32.9755Z" fill="white"/>
<path d="M83.9421 34.0693C83.7776 33.9037 83.6485 33.7065 83.5626 33.4896C83.4766 33.2726 83.4356 33.0405 83.4421 32.8073V9.0013C83.4333 8.52358 83.6129 8.0616 83.9421 7.7153C84.1031 7.54327 84.2989 7.40762 84.5166 7.31742C84.7342 7.22722 84.9686 7.18456 85.2041 7.1923H100.942C101.164 7.18609 101.386 7.22749 101.591 7.31372C101.796 7.39995 101.981 7.52902 102.132 7.6923C102.293 7.84505 102.421 8.02975 102.507 8.23464C102.593 8.43952 102.636 8.66009 102.632 8.8823C102.638 9.10142 102.597 9.31928 102.51 9.52078C102.424 9.72228 102.295 9.90261 102.132 10.0493C101.975 10.203 101.789 10.3241 101.584 10.4058C101.38 10.4874 101.162 10.5281 100.942 10.5253H87.0131V19.1923H99.534C99.7565 19.1861 99.9777 19.2275 100.183 19.3138C100.388 19.4 100.573 19.529 100.724 19.6923C100.883 19.8464 101.01 20.0314 101.096 20.236C101.182 20.4405 101.225 20.6604 101.224 20.8823C101.23 21.1014 101.189 21.3192 101.102 21.5207C101.016 21.7222 100.887 21.9026 100.724 22.0493C100.567 22.2029 100.381 22.3241 100.176 22.4057C99.9722 22.4874 99.7539 22.528 99.534 22.5253H87.0131V31.2383H100.942C101.164 31.2321 101.386 31.2734 101.591 31.3597C101.796 31.4459 101.981 31.575 102.132 31.7383C102.293 31.891 102.421 32.0757 102.507 32.2806C102.593 32.4855 102.636 32.7061 102.632 32.9283C102.638 33.1474 102.597 33.3652 102.51 33.5667C102.424 33.7682 102.295 33.9486 102.132 34.0953C101.975 34.2489 101.789 34.3701 101.584 34.4517C101.38 34.5334 101.162 34.574 100.942 34.5713H85.2041C84.9695 34.5885 84.7339 34.5523 84.5153 34.4653C84.2967 34.3784 84.1008 34.2429 83.9421 34.0693Z" fill="white"/>
<path d="M56.8047 32.3084L47.1167 8.80844C46.9503 8.29216 46.6269 7.84067 46.1917 7.51693C45.7564 7.19319 45.231 7.01333 44.6887 7.00244H43.8317C43.289 7.01354 42.7633 7.19384 42.328 7.51815C41.8928 7.84246 41.5696 8.2946 41.4037 8.81144L37.1907 19.0484H34.0007C33.5406 19.051 33.1 19.235 32.7747 19.5603C32.4493 19.8857 32.2653 20.3263 32.2627 20.7864V20.8104C32.2653 21.2705 32.4493 21.7111 32.7747 22.0365C33.1 22.3618 33.5406 22.5458 34.0007 22.5484H35.7147L31.6917 32.3094C31.6156 32.5237 31.5754 32.749 31.5727 32.9764C31.5538 33.4582 31.7247 33.9282 32.0487 34.2854C32.2149 34.4555 32.4155 34.5882 32.6371 34.6744C32.8588 34.7606 33.0963 34.7985 33.3337 34.7854C33.6935 34.7807 34.0429 34.6644 34.3337 34.4524C34.6385 34.2259 34.8768 33.9216 35.0237 33.5714L39.4517 22.5494H42.4987C42.9588 22.5468 43.3994 22.3628 43.7248 22.0375C44.0501 21.7121 44.2341 21.2715 44.2367 20.8114V20.7624C44.2341 20.3023 44.0501 19.8617 43.7248 19.5363C43.3994 19.211 42.9588 19.027 42.4987 19.0244H40.8567L44.2567 10.5734L53.4687 33.5734C53.6156 33.9236 53.8539 34.2279 54.1587 34.4544C54.4495 34.6664 54.7989 34.7827 55.1587 34.7874C55.3962 34.8005 55.6337 34.7626 55.8553 34.6764C56.0769 34.5902 56.2775 34.4575 56.4437 34.2874C56.7677 33.9302 56.9386 33.4602 56.9197 32.9784C56.9305 32.7494 56.8913 32.5207 56.8047 32.3084Z" fill="white"/>
<path d="M27.8599 32.3084L18.1719 8.80844C18.0055 8.29216 17.6821 7.84067 17.2469 7.51693C16.8116 7.19319 16.2862 7.01333 15.7439 7.00244H14.8869C14.3442 7.01354 13.8185 7.19384 13.3832 7.51815C12.9479 7.84246 12.6248 8.2946 12.4589 8.81144L8.24587 19.0484H5.05587C4.59574 19.051 4.15519 19.235 3.82982 19.5603C3.50445 19.8857 3.3205 20.3263 3.31788 20.7864V20.8104C3.3205 21.2705 3.50445 21.7111 3.82982 22.0365C4.15519 22.3618 4.59574 22.5458 5.05587 22.5484H6.76987L2.74688 32.3084C2.67078 32.5227 2.63057 32.748 2.62788 32.9754C2.60899 33.4572 2.7799 33.9272 3.10388 34.2844C3.27004 34.4545 3.47067 34.5872 3.69229 34.6734C3.91391 34.7596 4.15142 34.7975 4.38887 34.7844C4.74866 34.7797 5.0981 34.6634 5.38887 34.4514C5.69366 34.2249 5.93197 33.9206 6.07887 33.5704L10.5069 22.5484H13.5779C14.038 22.5458 14.4786 22.3618 14.804 22.0365C15.1293 21.7111 15.3133 21.2705 15.3159 20.8104V20.7624C15.3133 20.3023 15.1293 19.8617 14.804 19.5363C14.4786 19.211 14.038 19.027 13.5779 19.0244H11.9349L15.3149 10.5734L24.5269 33.5734C24.6738 33.9236 24.9121 34.2279 25.2169 34.4544C25.5077 34.6664 25.8571 34.7827 26.2169 34.7874C26.4544 34.8005 26.6919 34.7626 26.9135 34.6764C27.1351 34.5902 27.3357 34.4575 27.5019 34.2874C27.8259 33.9302 27.9968 33.4602 27.9779 32.9784C27.9877 32.7491 27.9475 32.5205 27.8599 32.3084Z" fill="white"/>
</svg>
