<svg width="117" height="42" viewBox="0 0 117 42" fill="none" xmlns="http://www.w3.org/2000/svg">
<mask id="mask0_521_60" style="mask-type:luminance" maskUnits="userSpaceOnUse" x="0" y="7" width="116" height="31">
<path d="M115.627 7H0.626953V37.3004H115.627V7Z" fill="white"/>
</mask>
<g mask="url(#mask0_521_60)">
<path d="M13.2968 7H0.626953V37.3004L13.2968 7Z" fill="#36BEFF"/>
<path d="M22.2109 7H34.8643V37.3004L22.2109 7Z" fill="#36BEFF"/>
<path d="M17.7537 18.1675L25.8179 37.3002H20.5271L18.1169 31.2088H12.2153L17.7537 18.1675Z" fill="#36BEFF"/>
<path d="M55.5344 26.2689L57.0283 30.5527C57.0779 30.66 57.1521 30.7095 57.2842 30.7095H60.1566C60.3134 30.7095 60.3382 30.6352 60.3134 30.4784L54.3788 13.9952C54.3541 13.8631 54.3293 13.8384 54.1972 13.8384H50.6315C50.5325 13.8384 50.4747 13.9127 50.4747 14.02C50.4251 14.8866 50.3509 15.1508 50.2436 15.4066L44.9528 30.4537C44.928 30.6352 44.9858 30.7095 45.1343 30.7095H47.7013C47.8582 30.7095 47.9324 30.66 47.9902 30.5032L49.4017 26.2689H55.5344ZM50.2188 23.4708C50.9947 21.1266 52.0182 18.1222 52.4309 16.4054H52.4556C52.9674 18.2047 54.1725 21.7705 54.7172 23.4708H50.2188Z" fill="white"/>
<path d="M67.9428 30.9652C69.4863 30.9652 71.1289 30.6846 72.7962 29.9665C72.9282 29.9169 72.953 29.8592 72.953 29.7354C72.9035 29.2731 72.8457 28.6046 72.8457 28.0928V12.5753C72.8457 12.4763 72.8457 12.4268 72.7219 12.4268H69.9238C69.8165 12.4268 69.767 12.4763 69.767 12.6083V17.8661C69.3295 17.8166 69.0241 17.7918 68.6609 17.7918C64.146 17.7918 61.3726 20.7715 61.3726 24.4941C61.3726 28.8109 64.2203 30.9652 67.9428 30.9652ZM69.7669 28.0928C69.3047 28.2414 68.793 28.2992 68.273 28.2992C66.226 28.2992 64.5504 27.1436 64.5504 24.3373C64.5504 21.8528 66.2755 20.3836 68.5619 20.3836C69.0241 20.3836 69.4285 20.4331 69.7669 20.5652V28.0928Z" fill="white"/>
<path d="M81.8797 17.792C78.0251 17.792 75.6396 20.7469 75.6396 24.3952C75.6396 27.6555 77.5381 30.9654 81.8219 30.9654C85.4454 30.9654 87.9876 28.2993 87.9876 24.3126C87.9876 20.7964 85.8334 17.792 81.8797 17.792ZM81.7229 20.3837C83.9019 20.3837 84.8263 22.2574 84.8263 24.3952C84.8263 27.0365 83.4645 28.3488 81.8797 28.3488C79.9235 28.3488 78.768 26.7063 78.768 24.3374C78.768 21.9025 79.9978 20.3837 81.7229 20.3837Z" fill="white"/>
<path d="M90.8803 12.4268C90.773 12.4268 90.6987 12.4763 90.6987 12.6083V30.1728C90.6987 30.2471 90.773 30.3792 90.8803 30.4039C92.1101 30.7836 93.3978 30.9652 94.7266 30.9652C98.5317 30.9652 102.23 28.6046 102.23 23.8503C102.23 20.4084 99.8689 17.7918 96.1711 17.7918C95.3209 17.7918 94.5285 17.9239 93.8352 18.155L93.8022 12.6331C93.8022 12.4515 93.7527 12.4268 93.5711 12.4268H90.8803ZM99.0682 24.1639C99.0682 27.0116 97.1203 28.3487 95.0155 28.3487C94.5781 28.3487 94.1901 28.3239 93.8352 28.2166V20.722C94.2397 20.5652 94.7266 20.4331 95.6263 20.4331C97.6568 20.4331 99.0682 21.7207 99.0682 24.1639Z" fill="white"/>
<path d="M112.672 25.0885C113.926 25.0885 114.958 25.0638 115.313 24.9812C115.445 24.9565 115.495 24.9069 115.519 24.7996C115.594 24.519 115.627 23.933 115.627 23.2149C115.627 20.7717 114.158 17.792 110.361 17.792C106.481 17.792 104.327 20.9533 104.327 24.519C104.327 27.6803 105.994 30.9654 110.666 30.9654C112.416 30.9654 113.547 30.6847 114.521 30.2225C114.62 30.173 114.669 30.0904 114.669 29.9419V27.8041C114.669 27.6803 114.595 27.6555 114.521 27.705C113.547 28.1177 112.49 28.3241 111.335 28.3241C108.718 28.3241 107.53 26.8796 107.455 25.0885H112.672ZM107.455 22.8764C107.662 21.6218 108.454 20.2599 110.229 20.2599C112.185 20.2599 112.697 21.9025 112.697 22.6453C112.697 22.6701 112.697 22.7774 112.697 22.8517C112.589 22.8764 112.259 22.8764 111.285 22.8764H107.455Z" fill="white"/>
</g>
</svg>
