<svg width="34" height="34" viewBox="0 0 34 34" fill="none" xmlns="http://www.w3.org/2000/svg">
<mask id="mask0_521_241" style="mask-type:luminance" maskUnits="userSpaceOnUse" x="0" y="0" width="34" height="34">
<path d="M17 34C7.61056 34 0 26.3894 0 17C0 7.61056 7.61056 0 17 0C26.3894 0 34 7.61056 34 17C34 26.3894 26.3894 34 17 34Z" fill="white"/>
</mask>
<g mask="url(#mask0_521_241)">
<path fill-rule="evenodd" clip-rule="evenodd" d="M16.9999 17L-7.04492 16.8518L-7.02316 15.9678L16.9999 17Z" fill="#FEFEFF"/>
<path fill-rule="evenodd" clip-rule="evenodd" d="M16.9998 17L-7.02734 16.1147L-6.99062 15.3775L16.9998 17Z" fill="#FDFEFF"/>
<path fill-rule="evenodd" clip-rule="evenodd" d="M17 17L-6.99854 15.5258L-6.94414 14.79L17 17Z" fill="#FCFDFF"/>
<path fill-rule="evenodd" clip-rule="evenodd" d="M17 17L-6.95508 14.9369L-6.883 14.2025L17 17Z" fill="#FBFCFF"/>
<path fill-rule="evenodd" clip-rule="evenodd" d="M17.0001 17L-6.89648 14.3494L-6.80672 13.6177L17.0001 17Z" fill="#FAFCFF"/>
<path fill-rule="evenodd" clip-rule="evenodd" d="M16.9998 17L-6.82471 13.7646L-6.71727 13.0342L16.9998 17Z" fill="#F9FBFF"/>
<path fill-rule="evenodd" clip-rule="evenodd" d="M16.9996 17L-6.73779 13.1798L-6.61267 12.4535L16.9996 17Z" fill="#F8FAFF"/>
<path fill-rule="evenodd" clip-rule="evenodd" d="M17.0001 17L-6.63672 12.599L-6.49392 11.8755L17.0001 17Z" fill="#F7FAFF"/>
<path fill-rule="evenodd" clip-rule="evenodd" d="M17.0001 17L-6.52246 12.021L-6.36062 11.3002L17.0001 17Z" fill="#F6F9FF"/>
<path fill-rule="evenodd" clip-rule="evenodd" d="M16.9998 17L-6.39355 11.4444L-6.21403 10.729L16.9998 17Z" fill="#F5F8FF"/>
<path fill-rule="evenodd" clip-rule="evenodd" d="M16.9997 17L-6.24951 10.8718L-6.05367 10.1606L16.9997 17Z" fill="#F4F8FF"/>
<path fill-rule="evenodd" clip-rule="evenodd" d="M17 17L-6.09277 10.3034L-5.87789 9.59753L17 17Z" fill="#F3F7FF"/>
<path fill-rule="evenodd" clip-rule="evenodd" d="M17.0001 17L-5.92139 9.73897L-5.68883 9.03857L17.0001 17Z" fill="#F2F6FF"/>
<path fill-rule="evenodd" clip-rule="evenodd" d="M16.9997 17L-5.73682 9.17863L-5.48794 8.48367L16.9997 17Z" fill="#F1F6FF"/>
<path fill-rule="evenodd" clip-rule="evenodd" d="M16.9999 17L-5.53662 8.62239L-5.27142 7.93423L16.9999 17Z" fill="#F0F5FF"/>
<path fill-rule="evenodd" clip-rule="evenodd" d="M16.9997 17L-5.32471 8.07159L-5.04319 7.39023L16.9997 17Z" fill="#EFF4FF"/>
<path fill-rule="evenodd" clip-rule="evenodd" d="M17 17L-5.09863 7.52623L-4.79943 6.85303L17 17Z" fill="#EEF3FF"/>
<path fill-rule="evenodd" clip-rule="evenodd" d="M16.9999 17L-4.85938 6.98769L-4.54386 6.32129L16.9999 17Z" fill="#EDF3FF"/>
<path fill-rule="evenodd" clip-rule="evenodd" d="M16.9998 17L-4.60791 6.45455L-4.27607 5.79495L16.9998 17Z" fill="#ECF2FF"/>
<path fill-rule="evenodd" clip-rule="evenodd" d="M16.9997 17L-4.34277 5.92687L-3.99461 5.27679L16.9997 17Z" fill="#EBF1FF"/>
<path fill-rule="evenodd" clip-rule="evenodd" d="M16.9997 17L-4.06396 5.40735L-3.70085 4.76407L16.9997 17Z" fill="#EAF1FF"/>
<path fill-rule="evenodd" clip-rule="evenodd" d="M16.9997 17L-3.77295 4.89326L-3.39351 4.26086L16.9997 17Z" fill="#E9F0FF"/>
<path fill-rule="evenodd" clip-rule="evenodd" d="M16.9996 17L-3.46973 4.38736L-3.07533 3.76312L16.9996 17Z" fill="#E8EFFF"/>
<path fill-rule="evenodd" clip-rule="evenodd" d="M17 17L-3.15381 3.88823L-2.74309 3.27487L17 17Z" fill="#E7EFFF"/>
<path fill-rule="evenodd" clip-rule="evenodd" d="M16.9999 17L-2.82617 3.39728L-2.40185 2.7948L16.9999 17Z" fill="#E6EEFF"/>
<path fill-rule="evenodd" clip-rule="evenodd" d="M16.9998 17L-2.48633 2.91584L-2.04705 2.32288L16.9998 17Z" fill="#E5EDFF"/>
<path fill-rule="evenodd" clip-rule="evenodd" d="M16.9999 17L-2.13525 2.44121L-1.68101 1.85913L16.9999 17Z" fill="#E4EDFF"/>
<path fill-rule="evenodd" clip-rule="evenodd" d="M17.0001 17L-1.77197 1.97609L-1.30413 1.40625L17.0001 17Z" fill="#E3ECFF"/>
<path fill-rule="evenodd" clip-rule="evenodd" d="M16.9997 17L-1.39697 1.52048L-0.915533 0.961517L16.9997 17Z" fill="#E2EBFF"/>
<path fill-rule="evenodd" clip-rule="evenodd" d="M17.0001 17L-1.01172 1.07303L-0.516679 0.526306L17.0001 17Z" fill="#E1EBFF"/>
<path fill-rule="evenodd" clip-rule="evenodd" d="M16.9999 17L-0.616211 0.63647L-0.107571 0.10199L16.9999 17Z" fill="#E0EAFF"/>
<path fill-rule="evenodd" clip-rule="evenodd" d="M17 17L-0.209473 0.209435L0.312767 -0.312805L17 17Z" fill="#DFE9FF"/>
<path fill-rule="evenodd" clip-rule="evenodd" d="M17 17L0.209473 -0.209456L0.742593 -0.716736L17 17Z" fill="#DEE9FF"/>
<path fill-rule="evenodd" clip-rule="evenodd" d="M16.9998 17L0.63623 -0.616075L1.18295 -1.11111L16.9998 17Z" fill="#DDE8FF"/>
<path fill-rule="evenodd" clip-rule="evenodd" d="M16.9997 17L1.07275 -1.01185L1.63171 -1.49329L16.9997 17Z" fill="#DCE7FF"/>
<path fill-rule="evenodd" clip-rule="evenodd" d="M17 17L1.52051 -1.39672L2.09035 -1.86456L17 17Z" fill="#DBE7FF"/>
<path fill-rule="evenodd" clip-rule="evenodd" d="M17 17L1.97607 -1.7721L2.55815 -2.22498L17 17Z" fill="#DAE6FF"/>
<path fill-rule="evenodd" clip-rule="evenodd" d="M16.9997 17L2.44092 -2.13521L3.03388 -2.57449L16.9997 17Z" fill="#D9E5FF"/>
<path fill-rule="evenodd" clip-rule="evenodd" d="M16.9997 17L2.91553 -2.48608L3.51801 -2.9104L16.9997 17Z" fill="#D8E5FF"/>
<path fill-rule="evenodd" clip-rule="evenodd" d="M16.9997 17L3.39697 -2.82608L4.01033 -3.23544L16.9997 17Z" fill="#D7E4FF"/>
<path fill-rule="evenodd" clip-rule="evenodd" d="M16.9999 17L3.88818 -3.15385L4.51242 -3.54825L16.9999 17Z" fill="#D6E3FF"/>
<path fill-rule="evenodd" clip-rule="evenodd" d="M16.9998 17L4.38721 -3.46935L5.01961 -3.84879L16.9998 17Z" fill="#D5E3FF"/>
<path fill-rule="evenodd" clip-rule="evenodd" d="M16.9998 17L4.89307 -3.77265L5.53499 -4.13577L16.9998 17Z" fill="#D4E2FF"/>
<path fill-rule="evenodd" clip-rule="evenodd" d="M16.9999 17L5.40723 -4.06367L6.05731 -4.41183L16.9999 17Z" fill="#D3E1FF"/>
<path fill-rule="evenodd" clip-rule="evenodd" d="M16.9999 17L5.92676 -4.34249L6.58636 -4.67297L16.9999 17Z" fill="#D2E0FF"/>
<path fill-rule="evenodd" clip-rule="evenodd" d="M17 17L6.45459 -4.60768L7.12099 -4.92184L17 17Z" fill="#D1E0FF"/>
<path fill-rule="evenodd" clip-rule="evenodd" d="M17.0001 17L6.98779 -4.85928L7.66235 -5.15848L17.0001 17Z" fill="#D0DFFF"/>
<path fill-rule="evenodd" clip-rule="evenodd" d="M16.9996 17L7.52588 -5.09865L8.2086 -5.38153L16.9996 17Z" fill="#CFDEFF"/>
<path fill-rule="evenodd" clip-rule="evenodd" d="M16.9997 17L8.07129 -5.3244L8.76081 -5.5896L16.9997 17Z" fill="#CEDEFF"/>
<path fill-rule="evenodd" clip-rule="evenodd" d="M16.9997 17L8.62207 -5.53655L9.31703 -5.78543L16.9997 17Z" fill="#CDDDFF"/>
<path fill-rule="evenodd" clip-rule="evenodd" d="M17.0001 17L9.17871 -5.73647L9.87911 -5.96631L17.0001 17Z" fill="#CCDCFF"/>
<path fill-rule="evenodd" clip-rule="evenodd" d="M16.9998 17L9.73877 -5.92143L10.4446 -6.13495L16.9998 17Z" fill="#CBDCFF"/>
<path fill-rule="evenodd" clip-rule="evenodd" d="M16.9999 17L10.3032 -6.0928L11.0145 -6.28864L16.9999 17Z" fill="#CADBFF"/>
<path fill-rule="evenodd" clip-rule="evenodd" d="M16.9997 17L10.8716 -6.24919L11.5869 -6.42871L16.9997 17Z" fill="#C9DAFF"/>
<path fill-rule="evenodd" clip-rule="evenodd" d="M16.9999 17L11.4443 -6.39335L12.1638 -6.55383L16.9999 17Z" fill="#C8DAFF"/>
<path fill-rule="evenodd" clip-rule="evenodd" d="M17 17L12.021 -6.52257L12.7432 -6.66537L17 17Z" fill="#C7D9FF"/>
<path fill-rule="evenodd" clip-rule="evenodd" d="M17.0001 17L12.5991 -6.6368L13.3254 -6.76328L17.0001 17Z" fill="#C6D8FF"/>
<path fill-rule="evenodd" clip-rule="evenodd" d="M16.9999 17L13.1797 -6.73745L13.91 -6.84625L16.9999 17Z" fill="#C5D8FF"/>
<path fill-rule="evenodd" clip-rule="evenodd" d="M17.0001 17L13.7646 -6.82449L14.4963 -6.91425L17.0001 17Z" fill="#C4D7FF"/>
<path fill-rule="evenodd" clip-rule="evenodd" d="M16.9998 17L14.3491 -6.89655L15.0835 -6.96863L16.9998 17Z" fill="#C3D6FF"/>
<path fill-rule="evenodd" clip-rule="evenodd" d="M16.9996 17L14.9365 -6.95503L15.6723 -7.00943L16.9996 17Z" fill="#C2D6FF"/>
<path fill-rule="evenodd" clip-rule="evenodd" d="M17.0001 17L15.5259 -6.99858L16.263 -7.03394L17.0001 17Z" fill="#C1D5FF"/>
<path fill-rule="evenodd" clip-rule="evenodd" d="M17.0001 17L16.1147 -7.02712L16.8519 -7.0448L17.0001 17Z" fill="#C0D4FF"/>
<path fill-rule="evenodd" clip-rule="evenodd" d="M16.9997 17L16.7046 -7.04208H17.4417L16.9997 17Z" fill="#BFD4FF"/>
<path fill-rule="evenodd" clip-rule="evenodd" d="M17 17L17.2951 -7.04208L18.0322 -7.02304L17 17Z" fill="#BED3FF"/>
<path fill-rule="evenodd" clip-rule="evenodd" d="M17 17L17.8854 -7.02713L18.6211 -6.99041L17 17Z" fill="#BDD2FF"/>
<path fill-rule="evenodd" clip-rule="evenodd" d="M17 17L18.4742 -6.99857L19.21 -6.94417L17 17Z" fill="#BCD2FF"/>
<path fill-rule="evenodd" clip-rule="evenodd" d="M17 17L19.0631 -6.95505L19.7975 -6.88297L17 17Z" fill="#BBD1FF"/>
<path fill-rule="evenodd" clip-rule="evenodd" d="M17 17L19.6493 -6.89655L20.3823 -6.80679L17 17Z" fill="#BAD0FF"/>
<path fill-rule="evenodd" clip-rule="evenodd" d="M17 17L20.2354 -6.82449L20.9658 -6.71705L17 17Z" fill="#B9D0FF"/>
<path fill-rule="evenodd" clip-rule="evenodd" d="M17 17L20.8189 -6.73743L21.5465 -6.61231L17 17Z" fill="#B8CFFF"/>
<path fill-rule="evenodd" clip-rule="evenodd" d="M17 17L21.401 -6.63681L22.1245 -6.49401L17 17Z" fill="#B7CEFF"/>
<path fill-rule="evenodd" clip-rule="evenodd" d="M17 17L21.979 -6.52255L22.6998 -6.36071L17 17Z" fill="#B6CDFF"/>
<path fill-rule="evenodd" clip-rule="evenodd" d="M17 17L22.5556 -6.39337L23.271 -6.21385L17 17Z" fill="#B5CDFF"/>
<path fill-rule="evenodd" clip-rule="evenodd" d="M17 17L23.1282 -6.24921L23.8381 -6.05337L17 17Z" fill="#B4CCFF"/>
<path fill-rule="evenodd" clip-rule="evenodd" d="M17 17L23.6966 -6.0928L24.4025 -5.87792L17 17Z" fill="#B3CBFF"/>
<path fill-rule="evenodd" clip-rule="evenodd" d="M17 17L24.261 -5.92145L24.9614 -5.68889L17 17Z" fill="#B2CBFF"/>
<path fill-rule="evenodd" clip-rule="evenodd" d="M17 17L24.8214 -5.73648L25.5163 -5.4876L17 17Z" fill="#B1CAFF"/>
<path fill-rule="evenodd" clip-rule="evenodd" d="M17 17L25.3776 -5.53656L26.0658 -5.27136L17 17Z" fill="#B0C9FF"/>
<path fill-rule="evenodd" clip-rule="evenodd" d="M17 17L25.927 -5.3244L26.6098 -5.04288L17 17Z" fill="#AFC9FF"/>
<path fill-rule="evenodd" clip-rule="evenodd" d="M17 17L26.4724 -5.09863L27.147 -4.79943L17 17Z" fill="#AEC8FF"/>
<path fill-rule="evenodd" clip-rule="evenodd" d="M17 17L27.0123 -4.85928L27.6787 -4.54376L17 17Z" fill="#ADC7FF"/>
<path fill-rule="evenodd" clip-rule="evenodd" d="M17 17L27.5454 -4.60767L28.205 -4.27583L17 17Z" fill="#ACC7FF"/>
<path fill-rule="evenodd" clip-rule="evenodd" d="M17 17L28.0731 -4.34247L28.7232 -3.99431L17 17Z" fill="#ABC6FF"/>
<path fill-rule="evenodd" clip-rule="evenodd" d="M17 17L28.5926 -4.06369L29.2359 -3.70057L17 17Z" fill="#AAC5FF"/>
<path fill-rule="evenodd" clip-rule="evenodd" d="M17 17L29.1067 -3.77264L29.7391 -3.3932L17 17Z" fill="#A9C5FF"/>
<path fill-rule="evenodd" clip-rule="evenodd" d="M17 17L29.6126 -3.46936L30.2355 -3.07496L17 17Z" fill="#A8C4FF"/>
<path fill-rule="evenodd" clip-rule="evenodd" d="M17 17L30.1118 -3.15384L30.7251 -2.74312L17 17Z" fill="#A7C3FF"/>
<path fill-rule="evenodd" clip-rule="evenodd" d="M17 17L30.6027 -2.82608L31.2052 -2.40176L17 17Z" fill="#A6C3FF"/>
<path fill-rule="evenodd" clip-rule="evenodd" d="M17 17L31.0842 -2.48608L31.6771 -2.0468L17 17Z" fill="#A5C2FF"/>
<path fill-rule="evenodd" clip-rule="evenodd" d="M17 17L31.5588 -2.13519L32.1395 -1.68095L17 17Z" fill="#A4C1FF"/>
<path fill-rule="evenodd" clip-rule="evenodd" d="M17 17L32.0239 -1.77209L32.5938 -1.30425L17 17Z" fill="#A3C1FF"/>
<path fill-rule="evenodd" clip-rule="evenodd" d="M17 17L32.4795 -1.39673L33.0385 -0.915289L17 17Z" fill="#A2C0FF"/>
<path fill-rule="evenodd" clip-rule="evenodd" d="M17 17L32.927 -1.01184L33.4737 -0.516801L17 17Z" fill="#A1BFFF"/>
<path fill-rule="evenodd" clip-rule="evenodd" d="M17 17L33.3635 -0.616089L33.898 -0.107449L17 17Z" fill="#A0BFFF"/>
<path fill-rule="evenodd" clip-rule="evenodd" d="M17 17L33.7906 -0.209442L34.3128 0.312798L17 17Z" fill="#9FBEFF"/>
<path fill-rule="evenodd" clip-rule="evenodd" d="M17 17L34.2081 0.209442L34.7167 0.742562L17 17Z" fill="#9EBDFF"/>
<path fill-rule="evenodd" clip-rule="evenodd" d="M17 17L34.6161 0.636475L35.1111 1.18319L17 17Z" fill="#9DBDFF"/>
<path fill-rule="evenodd" clip-rule="evenodd" d="M17 17L35.0118 1.07303L35.4933 1.63199L17 17Z" fill="#9CBCFF"/>
<path fill-rule="evenodd" clip-rule="evenodd" d="M17 17L35.3967 1.52048L35.8646 2.09032L17 17Z" fill="#9BBBFF"/>
<path fill-rule="evenodd" clip-rule="evenodd" d="M17 17L35.7721 1.97607L36.225 2.55815L17 17Z" fill="#9ABAFF"/>
<path fill-rule="evenodd" clip-rule="evenodd" d="M17 17L36.1352 2.44119L36.5745 3.03415L17 17Z" fill="#99BAFF"/>
<path fill-rule="evenodd" clip-rule="evenodd" d="M17 17L36.4861 2.91583L36.9104 3.51831L17 17Z" fill="#98B9FF"/>
<path fill-rule="evenodd" clip-rule="evenodd" d="M17 17L36.8261 3.39728L37.2354 4.01064L17 17Z" fill="#97B8FF"/>
<path fill-rule="evenodd" clip-rule="evenodd" d="M17 17L37.1538 3.88824L37.5482 4.51248L17 17Z" fill="#96B8FF"/>
<path fill-rule="evenodd" clip-rule="evenodd" d="M17 17L37.4694 4.38736L37.8488 5.01976L17 17Z" fill="#95B7FF"/>
<path fill-rule="evenodd" clip-rule="evenodd" d="M17 17L37.7726 4.89328L38.1358 5.5352L17 17Z" fill="#94B6FF"/>
<path fill-rule="evenodd" clip-rule="evenodd" d="M17 17L38.0637 5.40735L38.4105 6.05743L17 17Z" fill="#93B6FF"/>
<path fill-rule="evenodd" clip-rule="evenodd" d="M17 17L38.3411 5.92688L38.673 6.58648L17 17Z" fill="#92B5FF"/>
<path fill-rule="evenodd" clip-rule="evenodd" d="M17 17L38.6077 6.45456L38.9218 7.12096L17 17Z" fill="#91B4FF"/>
<path fill-rule="evenodd" clip-rule="evenodd" d="M17 17L38.8593 6.98767L39.1585 7.66223L17 17Z" fill="#90B4FF"/>
<path fill-rule="evenodd" clip-rule="evenodd" d="M17 17L39.0986 7.52625L39.3802 8.20896L17 17Z" fill="#8FB3FF"/>
<path fill-rule="evenodd" clip-rule="evenodd" d="M17 17L39.3244 8.07159L39.5896 8.76111L17 17Z" fill="#8EB2FF"/>
<path fill-rule="evenodd" clip-rule="evenodd" d="M17 17L39.5366 8.62241L39.7854 9.31737L17 17Z" fill="#8DB2FF"/>
<path fill-rule="evenodd" clip-rule="evenodd" d="M17 17L39.7351 9.17865L39.9663 9.87905L17 17Z" fill="#8CB1FF"/>
<path fill-rule="evenodd" clip-rule="evenodd" d="M17 17L39.9201 9.73895L40.135 10.4448L17 17Z" fill="#8BB0FF"/>
<path fill-rule="evenodd" clip-rule="evenodd" d="M17 17L40.0914 10.3033L40.2886 11.0146L17 17Z" fill="#8AB0FF"/>
<path fill-rule="evenodd" clip-rule="evenodd" d="M17 17L40.2492 10.8718L40.4287 11.5872L17 17Z" fill="#89AFFF"/>
<path fill-rule="evenodd" clip-rule="evenodd" d="M17 17L40.3934 11.4444L40.5538 12.1638L17 17Z" fill="#88AEFF"/>
<path fill-rule="evenodd" clip-rule="evenodd" d="M17 17L40.5212 12.021L40.6654 12.7432L17 17Z" fill="#87AEFF"/>
<path fill-rule="evenodd" clip-rule="evenodd" d="M17 17L40.6368 12.599L40.7633 13.3253L17 17Z" fill="#86ADFF"/>
<path fill-rule="evenodd" clip-rule="evenodd" d="M17 17L40.7374 13.1797L40.8462 13.9101L17 17Z" fill="#85ACFF"/>
<path fill-rule="evenodd" clip-rule="evenodd" d="M17 17L40.8245 13.7646L40.9142 14.4962L17 17Z" fill="#84ACFF"/>
<path fill-rule="evenodd" clip-rule="evenodd" d="M17 17L40.8966 14.3494L40.9686 15.0838L17 17Z" fill="#83ABFF"/>
<path fill-rule="evenodd" clip-rule="evenodd" d="M17 17L40.955 14.9369L41.0094 15.6726L17 17Z" fill="#82AAFF"/>
<path fill-rule="evenodd" clip-rule="evenodd" d="M17 17L40.9986 15.5258L41.0339 16.2629L17 17Z" fill="#81AAFF"/>
<path fill-rule="evenodd" clip-rule="evenodd" d="M17 17L41.0271 16.1146L41.0448 16.8517L17 17Z" fill="#80A9FF"/>
<path fill-rule="evenodd" clip-rule="evenodd" d="M17 17L41.0407 16.7049V17.442L17 17Z" fill="#7FA8FF"/>
<path fill-rule="evenodd" clip-rule="evenodd" d="M17 17L41.0407 17.2951L41.023 18.0322L17 17Z" fill="#7EA7FF"/>
<path fill-rule="evenodd" clip-rule="evenodd" d="M17 17L41.0271 17.8854L40.9904 18.6211L17 17Z" fill="#7DA7FF"/>
<path fill-rule="evenodd" clip-rule="evenodd" d="M17 17L40.9986 18.4742L40.9442 19.21L17 17Z" fill="#7CA6FF"/>
<path fill-rule="evenodd" clip-rule="evenodd" d="M17 17L40.955 19.0631L40.883 19.7975L17 17Z" fill="#7BA5FF"/>
<path fill-rule="evenodd" clip-rule="evenodd" d="M17 17L40.8966 19.6493L40.8068 20.3823L17 17Z" fill="#7AA5FF"/>
<path fill-rule="evenodd" clip-rule="evenodd" d="M17 17L40.8245 20.2354L40.7157 20.9658L17 17Z" fill="#79A4FF"/>
<path fill-rule="evenodd" clip-rule="evenodd" d="M17 17L40.7374 20.8189L40.6123 21.5465L17 17Z" fill="#78A3FF"/>
<path fill-rule="evenodd" clip-rule="evenodd" d="M17 17L40.6368 21.401L40.4926 22.1245L17 17Z" fill="#77A3FF"/>
<path fill-rule="evenodd" clip-rule="evenodd" d="M17 17L40.5212 21.979L40.3607 22.6998L17 17Z" fill="#76A2FF"/>
<path fill-rule="evenodd" clip-rule="evenodd" d="M17 17L40.3934 22.5556L40.2138 23.271L17 17Z" fill="#75A1FF"/>
<path fill-rule="evenodd" clip-rule="evenodd" d="M17 17L40.2492 23.1282L40.0534 23.8381L17 17Z" fill="#74A1FF"/>
<path fill-rule="evenodd" clip-rule="evenodd" d="M17 17L40.0914 23.6966L39.8779 24.4025L17 17Z" fill="#73A0FF"/>
<path fill-rule="evenodd" clip-rule="evenodd" d="M17 17L39.9201 24.261L39.6889 24.9614L17 17Z" fill="#729FFF"/>
<path fill-rule="evenodd" clip-rule="evenodd" d="M17 17L39.7351 24.8214L39.4876 25.5163L17 17Z" fill="#719FFF"/>
<path fill-rule="evenodd" clip-rule="evenodd" d="M17 17L39.5366 25.3776L39.2714 26.0658L17 17Z" fill="#709EFF"/>
<path fill-rule="evenodd" clip-rule="evenodd" d="M17 17L39.3244 25.927L39.0415 26.6098L17 17Z" fill="#6F9DFF"/>
<path fill-rule="evenodd" clip-rule="evenodd" d="M17 17L39.0986 26.4724L38.7994 27.147L17 17Z" fill="#6E9DFF"/>
<path fill-rule="evenodd" clip-rule="evenodd" d="M17 17L38.8593 27.0123L38.5438 27.6787L17 17Z" fill="#6D9CFF"/>
<path fill-rule="evenodd" clip-rule="evenodd" d="M17 17L38.6077 27.5454L38.2758 28.205L17 17Z" fill="#6C9BFF"/>
<path fill-rule="evenodd" clip-rule="evenodd" d="M17 17L38.3411 28.0731L37.9943 28.7232L17 17Z" fill="#6B9BFF"/>
<path fill-rule="evenodd" clip-rule="evenodd" d="M17 17L38.0637 28.5926L37.7006 29.2359L17 17Z" fill="#6A9AFF"/>
<path fill-rule="evenodd" clip-rule="evenodd" d="M17 17L37.7726 29.1067L37.3932 29.7391L17 17Z" fill="#6999FF"/>
<path fill-rule="evenodd" clip-rule="evenodd" d="M17 17L37.4694 29.6126L37.075 30.2355L17 17Z" fill="#6899FF"/>
<path fill-rule="evenodd" clip-rule="evenodd" d="M17 17L37.1538 30.1118L36.7431 30.7251L17 17Z" fill="#6798FF"/>
<path fill-rule="evenodd" clip-rule="evenodd" d="M17 17L36.8261 30.6027L36.4018 31.2052L17 17Z" fill="#6697FF"/>
<path fill-rule="evenodd" clip-rule="evenodd" d="M17 17L36.4861 31.0842L36.0468 31.6771L17 17Z" fill="#6597FF"/>
<path fill-rule="evenodd" clip-rule="evenodd" d="M17 17L36.1352 31.5588L35.681 32.1395L17 17Z" fill="#6496FF"/>
<path fill-rule="evenodd" clip-rule="evenodd" d="M17 17L35.7721 32.0239L35.3042 32.5938L17 17Z" fill="#6395FF"/>
<path fill-rule="evenodd" clip-rule="evenodd" d="M17 17L35.3967 32.4795L34.9153 33.0385L17 17Z" fill="#6294FF"/>
<path fill-rule="evenodd" clip-rule="evenodd" d="M17 17L35.0118 32.927L34.5168 33.4737L17 17Z" fill="#6194FF"/>
<path fill-rule="evenodd" clip-rule="evenodd" d="M17 17L34.6161 33.3635L34.1074 33.898L17 17Z" fill="#6093FF"/>
<path fill-rule="evenodd" clip-rule="evenodd" d="M17 17L34.2081 33.7906L33.6872 34.3128L17 17Z" fill="#5F92FF"/>
<path fill-rule="evenodd" clip-rule="evenodd" d="M17 17L33.7906 34.2081L33.2574 34.7167L17 17Z" fill="#5E92FF"/>
<path fill-rule="evenodd" clip-rule="evenodd" d="M17 17L33.3635 34.6161L32.8168 35.1111L17 17Z" fill="#5D91FF"/>
<path fill-rule="evenodd" clip-rule="evenodd" d="M17 17L32.927 35.0118L32.368 35.4933L17 17Z" fill="#5C90FF"/>
<path fill-rule="evenodd" clip-rule="evenodd" d="M17 17L32.4795 35.3967L31.9097 35.8646L17 17Z" fill="#5B90FF"/>
<path fill-rule="evenodd" clip-rule="evenodd" d="M17 17L32.0239 35.7721L31.4418 36.225L17 17Z" fill="#5A8FFF"/>
<path fill-rule="evenodd" clip-rule="evenodd" d="M17 17L31.5588 36.1352L30.9658 36.5745L17 17Z" fill="#598EFF"/>
<path fill-rule="evenodd" clip-rule="evenodd" d="M17 17L31.0842 36.4861L30.4817 36.9104L17 17Z" fill="#588EFF"/>
<path fill-rule="evenodd" clip-rule="evenodd" d="M17 17L30.6027 36.8261L29.988 37.2354L17 17Z" fill="#578DFF"/>
<path fill-rule="evenodd" clip-rule="evenodd" d="M17 17L30.1118 37.1538L29.4875 37.5482L17 17Z" fill="#568CFF"/>
<path fill-rule="evenodd" clip-rule="evenodd" d="M17 17L29.6126 37.4694L28.9802 37.8488L17 17Z" fill="#558CFF"/>
<path fill-rule="evenodd" clip-rule="evenodd" d="M17 17L29.1067 37.7726L28.4648 38.1358L17 17Z" fill="#548BFF"/>
<path fill-rule="evenodd" clip-rule="evenodd" d="M17 17L28.5926 38.0637L27.9426 38.4105L17 17Z" fill="#538AFF"/>
<path fill-rule="evenodd" clip-rule="evenodd" d="M17 17L28.0731 38.3411L27.4135 38.673L17 17Z" fill="#528AFF"/>
<path fill-rule="evenodd" clip-rule="evenodd" d="M17 17L27.5454 38.6077L26.879 38.9218L17 17Z" fill="#5189FF"/>
<path fill-rule="evenodd" clip-rule="evenodd" d="M17 17L27.0123 38.8593L26.3378 39.1585L17 17Z" fill="#5088FF"/>
<path fill-rule="evenodd" clip-rule="evenodd" d="M17 17L26.4724 39.0986L25.791 39.3802L17 17Z" fill="#4F88FF"/>
<path fill-rule="evenodd" clip-rule="evenodd" d="M17 17L25.927 39.3244L25.2389 39.5896L17 17Z" fill="#4E87FF"/>
<path fill-rule="evenodd" clip-rule="evenodd" d="M17 17L25.3776 39.5366L24.6826 39.7854L17 17Z" fill="#4D86FF"/>
<path fill-rule="evenodd" clip-rule="evenodd" d="M17 17L24.8214 39.7351L24.121 39.9663L17 17Z" fill="#4C86FF"/>
<path fill-rule="evenodd" clip-rule="evenodd" d="M17 17L24.261 39.9201L23.5552 40.135L17 17Z" fill="#4B85FF"/>
<path fill-rule="evenodd" clip-rule="evenodd" d="M17 17L23.6966 40.0914L22.9854 40.2886L17 17Z" fill="#4A84FF"/>
<path fill-rule="evenodd" clip-rule="evenodd" d="M17 17L23.1282 40.2492L22.4114 40.4287L17 17Z" fill="#4984FF"/>
<path fill-rule="evenodd" clip-rule="evenodd" d="M17 17L22.5556 40.3934L21.8362 40.5538L17 17Z" fill="#4883FF"/>
<path fill-rule="evenodd" clip-rule="evenodd" d="M17 17L21.979 40.5212L21.2554 40.6654L17 17Z" fill="#4782FF"/>
<path fill-rule="evenodd" clip-rule="evenodd" d="M17 17L21.401 40.6368L20.6747 40.7633L17 17Z" fill="#4681FF"/>
<path fill-rule="evenodd" clip-rule="evenodd" d="M17 17L20.8189 40.7374L20.0899 40.8462L17 17Z" fill="#4581FF"/>
<path fill-rule="evenodd" clip-rule="evenodd" d="M17 17L20.2354 40.8245L19.5038 40.9142L17 17Z" fill="#4480FF"/>
<path fill-rule="evenodd" clip-rule="evenodd" d="M17 17L19.6493 40.8966L18.9162 40.9686L17 17Z" fill="#437FFF"/>
<path fill-rule="evenodd" clip-rule="evenodd" d="M17 17L19.0631 40.955L18.3274 41.0094L17 17Z" fill="#427FFF"/>
<path fill-rule="evenodd" clip-rule="evenodd" d="M17 17L18.4742 40.9986L17.7371 41.0339L17 17Z" fill="#417EFF"/>
<path fill-rule="evenodd" clip-rule="evenodd" d="M17 17L17.8854 41.0271L17.1469 41.0448L17 17Z" fill="#407DFF"/>
<path fill-rule="evenodd" clip-rule="evenodd" d="M17 17L17.2951 41.0407H16.5566L17 17Z" fill="#3F7DFF"/>
<path fill-rule="evenodd" clip-rule="evenodd" d="M17 17L16.7049 41.0407L15.9678 41.023L17 17Z" fill="#3E7CFF"/>
<path fill-rule="evenodd" clip-rule="evenodd" d="M16.9999 17L16.1146 41.0271L15.3774 40.9904L16.9999 17Z" fill="#3D7BFF"/>
<path fill-rule="evenodd" clip-rule="evenodd" d="M17 17L15.5258 40.9986L14.79 40.9442L17 17Z" fill="#3C7BFF"/>
<path fill-rule="evenodd" clip-rule="evenodd" d="M16.9997 17L14.9365 40.955L14.2021 40.883L16.9997 17Z" fill="#3B7AFF"/>
<path fill-rule="evenodd" clip-rule="evenodd" d="M17 17L14.3494 40.8966L13.6177 40.8068L17 17Z" fill="#3A79FF"/>
<path fill-rule="evenodd" clip-rule="evenodd" d="M16.9999 17L13.7645 40.8245L13.0342 40.7157L16.9999 17Z" fill="#3979FF"/>
<path fill-rule="evenodd" clip-rule="evenodd" d="M17.0001 17L13.1799 40.7374L12.4536 40.6123L17.0001 17Z" fill="#3878FF"/>
<path fill-rule="evenodd" clip-rule="evenodd" d="M17 17L12.599 40.6368L11.8755 40.4926L17 17Z" fill="#3777FF"/>
<path fill-rule="evenodd" clip-rule="evenodd" d="M17.0001 17L12.0211 40.5212L11.3003 40.3607L17.0001 17Z" fill="#3677FF"/>
<path fill-rule="evenodd" clip-rule="evenodd" d="M17 17L11.4444 40.3934L10.729 40.2138L17 17Z" fill="#3576FF"/>
<path fill-rule="evenodd" clip-rule="evenodd" d="M17.0001 17L10.8719 40.2492L10.1606 40.0534L17.0001 17Z" fill="#3475FF"/>
<path fill-rule="evenodd" clip-rule="evenodd" d="M16.9996 17L10.303 40.0914L9.59717 39.8779L16.9996 17Z" fill="#3375FF"/>
<path fill-rule="evenodd" clip-rule="evenodd" d="M17 17L9.73897 39.9201L9.03857 39.6889L17 17Z" fill="#3274FF"/>
<path fill-rule="evenodd" clip-rule="evenodd" d="M16.9997 17L9.17836 39.7351L8.4834 39.4876L16.9997 17Z" fill="#3173FF"/>
<path fill-rule="evenodd" clip-rule="evenodd" d="M16.9998 17L8.62224 39.5366L7.93408 39.2714L16.9998 17Z" fill="#3073FF"/>
<path fill-rule="evenodd" clip-rule="evenodd" d="M16.9999 17L8.0715 39.3244L7.39014 39.0415L16.9999 17Z" fill="#2F72FF"/>
<path fill-rule="evenodd" clip-rule="evenodd" d="M17 17L7.52623 39.0986L6.85303 38.7994L17 17Z" fill="#2E71FF"/>
<path fill-rule="evenodd" clip-rule="evenodd" d="M17 17L6.98769 38.8593L6.32129 38.5438L17 17Z" fill="#2D71FF"/>
<path fill-rule="evenodd" clip-rule="evenodd" d="M17 17L6.45452 38.6077L5.79492 38.2758L17 17Z" fill="#2C70FF"/>
<path fill-rule="evenodd" clip-rule="evenodd" d="M17.0001 17L5.92694 38.3411L5.27686 37.9943L17.0001 17Z" fill="#2B6FFF"/>
<path fill-rule="evenodd" clip-rule="evenodd" d="M17.0001 17L5.40744 38.0637L4.76416 37.7006L17.0001 17Z" fill="#2A6EFF"/>
<path fill-rule="evenodd" clip-rule="evenodd" d="M16.9999 17L4.89314 37.7726L4.26074 37.3932L16.9999 17Z" fill="#296EFF"/>
<path fill-rule="evenodd" clip-rule="evenodd" d="M17.0001 17L4.38742 37.4694L3.76318 37.075L17.0001 17Z" fill="#286DFF"/>
<path fill-rule="evenodd" clip-rule="evenodd" d="M17 17L3.88826 37.1538L3.2749 36.7431L17 17Z" fill="#276CFF"/>
<path fill-rule="evenodd" clip-rule="evenodd" d="M16.9996 17L3.39691 36.8261L2.79443 36.4018L16.9996 17Z" fill="#266CFF"/>
<path fill-rule="evenodd" clip-rule="evenodd" d="M16.9999 17L2.91571 36.4861L2.32275 36.0468L16.9999 17Z" fill="#256BFF"/>
<path fill-rule="evenodd" clip-rule="evenodd" d="M16.9998 17L2.44097 36.1352L1.85889 35.681L16.9998 17Z" fill="#246AFF"/>
<path fill-rule="evenodd" clip-rule="evenodd" d="M17 17L1.97609 35.7721L1.40625 35.3042L17 17Z" fill="#236AFF"/>
<path fill-rule="evenodd" clip-rule="evenodd" d="M16.9999 17L1.52039 35.3967L0.961426 34.9153L16.9999 17Z" fill="#2269FF"/>
<path fill-rule="evenodd" clip-rule="evenodd" d="M17 17L1.07309 35.0118L0.526367 34.5168L17 17Z" fill="#2168FF"/>
<path fill-rule="evenodd" clip-rule="evenodd" d="M17.0001 17L0.636531 34.6161L0.102051 34.1074L17.0001 17Z" fill="#2068FF"/>
<path fill-rule="evenodd" clip-rule="evenodd" d="M16.9998 17L0.209252 34.2081L-0.312988 33.6872L16.9998 17Z" fill="#1F67FF"/>
<path fill-rule="evenodd" clip-rule="evenodd" d="M16.9999 17L-0.209517 33.7906L-0.716797 33.2574L16.9999 17Z" fill="#1E66FF"/>
<path fill-rule="evenodd" clip-rule="evenodd" d="M16.9998 17L-0.616288 33.3635L-1.11133 32.8168L16.9998 17Z" fill="#1D66FF"/>
<path fill-rule="evenodd" clip-rule="evenodd" d="M17.0001 17L-1.01172 32.927L-1.49316 32.368L17.0001 17Z" fill="#1C65FF"/>
<path fill-rule="evenodd" clip-rule="evenodd" d="M16.9998 17L-1.39691 32.4795L-1.86475 31.9097L16.9998 17Z" fill="#1B64FF"/>
<path fill-rule="evenodd" clip-rule="evenodd" d="M16.9999 17L-1.77222 32.0239L-2.2251 31.4418L16.9999 17Z" fill="#1A64FF"/>
<path fill-rule="evenodd" clip-rule="evenodd" d="M16.9998 17L-2.13543 31.5588L-2.57471 30.9658L16.9998 17Z" fill="#1963FF"/>
<path fill-rule="evenodd" clip-rule="evenodd" d="M16.9998 17L-2.48632 31.0842L-2.91064 30.4817L16.9998 17Z" fill="#1862FF"/>
<path fill-rule="evenodd" clip-rule="evenodd" d="M17.0001 17L-2.82599 30.6027L-3.23535 29.988L17.0001 17Z" fill="#1762FF"/>
<path fill-rule="evenodd" clip-rule="evenodd" d="M16.9999 17L-3.15394 30.1118L-3.54834 29.4875L16.9999 17Z" fill="#1661FF"/>
<path fill-rule="evenodd" clip-rule="evenodd" d="M16.9997 17L-3.46968 29.6126L-3.84912 28.9802L16.9997 17Z" fill="#1560FF"/>
<path fill-rule="evenodd" clip-rule="evenodd" d="M17 17L-3.77262 29.1067L-4.13574 28.4648L17 17Z" fill="#1460FF"/>
<path fill-rule="evenodd" clip-rule="evenodd" d="M16.9997 17L-4.06395 28.5926L-4.41211 27.9426L16.9997 17Z" fill="#135FFF"/>
<path fill-rule="evenodd" clip-rule="evenodd" d="M17.0001 17L-4.34237 28.0731L-4.67285 27.4135L17.0001 17Z" fill="#125EFF"/>
<path fill-rule="evenodd" clip-rule="evenodd" d="M17 17L-4.60771 27.5454L-4.92188 26.879L17 17Z" fill="#115EFF"/>
<path fill-rule="evenodd" clip-rule="evenodd" d="M16.9998 17L-4.85949 27.0123L-5.15869 26.3378L16.9998 17Z" fill="#105DFF"/>
<path fill-rule="evenodd" clip-rule="evenodd" d="M16.9997 17L-5.09896 26.4724L-5.38184 25.791L16.9997 17Z" fill="#0F5CFF"/>
<path fill-rule="evenodd" clip-rule="evenodd" d="M16.9998 17L-5.32464 25.927L-5.58984 25.2389L16.9998 17Z" fill="#0E5BFF"/>
<path fill-rule="evenodd" clip-rule="evenodd" d="M16.9998 17L-5.53676 25.3776L-5.78564 24.6826L16.9998 17Z" fill="#0D5BFF"/>
<path fill-rule="evenodd" clip-rule="evenodd" d="M17 17L-5.73647 24.8214L-5.96631 24.121L17 17Z" fill="#0C5AFF"/>
<path fill-rule="evenodd" clip-rule="evenodd" d="M16.9997 17L-5.92173 24.261L-6.13525 23.5552L16.9997 17Z" fill="#0B59FF"/>
<path fill-rule="evenodd" clip-rule="evenodd" d="M17.0001 17L-6.09273 23.6966L-6.28857 22.9854L17.0001 17Z" fill="#0A59FF"/>
<path fill-rule="evenodd" clip-rule="evenodd" d="M17 17L-6.24919 23.1282L-6.42871 22.4114L17 17Z" fill="#0958FF"/>
<path fill-rule="evenodd" clip-rule="evenodd" d="M16.9996 17L-6.39372 22.5556L-6.5542 21.8362L16.9996 17Z" fill="#0857FF"/>
<path fill-rule="evenodd" clip-rule="evenodd" d="M16.9998 17L-6.52273 21.979L-6.66553 21.2554L16.9998 17Z" fill="#0757FF"/>
<path fill-rule="evenodd" clip-rule="evenodd" d="M17.0001 17L-6.6367 21.401L-6.76318 20.6747L17.0001 17Z" fill="#0656FF"/>
<path fill-rule="evenodd" clip-rule="evenodd" d="M17 17L-6.73739 20.8189L-6.84619 20.0899L17 17Z" fill="#0555FF"/>
<path fill-rule="evenodd" clip-rule="evenodd" d="M16.9997 17L-6.82479 20.2354L-6.91455 19.5038L16.9997 17Z" fill="#0455FF"/>
<path fill-rule="evenodd" clip-rule="evenodd" d="M16.9999 17L-6.89667 19.6493L-6.96875 18.9162L16.9999 17Z" fill="#0354FF"/>
<path fill-rule="evenodd" clip-rule="evenodd" d="M16.9997 17L-6.95537 19.0631L-7.00977 18.3274L16.9997 17Z" fill="#0253FF"/>
<path fill-rule="evenodd" clip-rule="evenodd" d="M16.9997 17L-6.99882 18.4742L-7.03418 17.7371L16.9997 17Z" fill="#0153FF"/>
<path fill-rule="evenodd" clip-rule="evenodd" d="M16.9999 17L-7.02724 17.8854L-7.04492 17.1469L16.9999 17Z" fill="#0052FF"/>
<path fill-rule="evenodd" clip-rule="evenodd" d="M17.0001 17L-7.04199 17.2951V16.7049L17.0001 17Z" fill="white"/>
</g>
</svg>
