<svg width="117" height="42" viewBox="0 0 117 42" fill="none" xmlns="http://www.w3.org/2000/svg">
<path d="M40.7642 20.4341C40.7339 19.6066 40.8726 18.7816 41.172 18.0085C41.4714 17.2355 41.9253 16.5304 42.5064 15.9357C43.0876 15.341 43.7839 14.8688 44.5537 14.5476C45.3235 14.2264 46.1509 14.0627 46.9861 14.0665C50.133 14.0665 51.9956 15.8971 52.5576 18.0463L50.5827 18.7069C50.4089 17.9057 49.9495 17.1934 49.289 16.7007C48.6283 16.208 47.8107 15.9679 46.9861 16.0245C44.9469 16.0245 42.9078 17.497 42.9078 20.4739C42.9078 23.4508 44.8988 24.8676 47.0101 24.8676C47.8393 24.8914 48.6526 24.6384 49.3194 24.1491C49.9862 23.6598 50.4678 22.9625 50.6871 22.1693L52.6057 22.7902C52.2773 24.0012 51.5407 25.0643 50.5183 25.8028C49.4959 26.5413 48.2494 26.9107 46.9861 26.8494C46.1433 26.8651 45.3064 26.708 44.5279 26.3879C43.7493 26.0677 43.0459 25.5916 42.4618 24.9892C41.8776 24.3869 41.4252 23.6713 41.1331 22.8874C40.841 22.1036 40.7154 21.2684 40.7642 20.4341Z" fill="white"/>
<path d="M56.4108 26.5551H54.3877V14.0347H56.4108V18.9457C56.7055 18.6002 57.0752 18.3256 57.4924 18.1422C57.9096 17.9588 58.3633 17.8716 58.8193 17.8871C60.9146 17.8871 61.9261 19.3755 61.9261 21.2301V26.5551H59.9593V21.5724C59.9962 21.33 59.9775 21.0825 59.9046 20.8482C59.8317 20.614 59.7066 20.399 59.5385 20.2193C59.3703 20.0397 59.1635 19.8998 58.9334 19.8102C58.7032 19.7206 58.4557 19.6836 58.2091 19.7019C57.9644 19.7021 57.7225 19.7527 57.4985 19.8504C57.2747 19.9483 57.0737 20.0911 56.9084 20.27C56.7431 20.4488 56.6171 20.6597 56.5383 20.8895C56.4596 21.1192 56.4298 21.3625 56.451 21.6042L56.4108 26.5551Z" fill="white"/>
<path d="M66.4464 21.7315L68.6221 21.3972C69.1118 21.3335 69.2482 21.0868 69.2482 20.7923C69.2482 20.0839 68.7665 19.5108 67.6426 19.5108C67.4259 19.4923 67.2076 19.5177 67.0011 19.5854C66.7945 19.6531 66.604 19.7617 66.4411 19.9046C66.2782 20.0475 66.1463 20.2218 66.0533 20.4168C65.9604 20.6118 65.9084 20.8235 65.9005 21.039L64.054 20.6251C64.2065 19.1685 65.5392 17.8711 67.6265 17.8711C70.2438 17.8711 71.2392 19.3436 71.2392 21.0549V25.2337C71.2346 25.6869 71.2695 26.1396 71.3436 26.5868H69.457C69.3922 26.2324 69.3653 25.8722 69.3767 25.5123C69.0949 25.9405 68.7052 26.2884 68.2462 26.5216C67.7872 26.7547 67.2747 26.865 66.7595 26.8415C66.4004 26.8708 66.0388 26.8275 65.697 26.7144C65.3552 26.6013 65.04 26.4206 64.7706 26.1832C64.5012 25.9458 64.2832 25.6568 64.1296 25.3336C63.9761 25.0103 63.8903 24.6595 63.8774 24.3025C63.8774 22.7662 64.9933 21.9385 66.4464 21.7315ZM69.2482 23.0846V22.7026L67.0325 23.0289C66.7313 23.0391 66.4458 23.1639 66.2351 23.3772C66.0243 23.5907 65.9045 23.8764 65.9005 24.1751C65.9031 24.3293 65.9378 24.4813 66.0027 24.6214C66.0675 24.7616 66.1611 24.8868 66.2772 24.9893C66.3935 25.0918 66.5299 25.1693 66.6778 25.2169C66.8258 25.2644 66.9821 25.281 67.1369 25.2655C67.4292 25.2951 67.7245 25.2582 68.0004 25.1577C68.2762 25.0573 68.5254 24.8957 68.729 24.6855C68.9325 24.4753 69.085 24.2219 69.175 23.9445C69.265 23.6671 69.29 23.3731 69.2482 23.0846Z" fill="white"/>
<path d="M74.6753 13.8595C74.8506 13.8573 75.0246 13.8898 75.1872 13.9549C75.3498 14.0199 75.4977 14.1163 75.6224 14.2385C75.7471 14.3607 75.8462 14.5061 75.9137 14.6665C75.9813 14.8269 76.016 14.999 76.016 15.1728C76.016 15.519 75.8774 15.851 75.6304 16.0958C75.3835 16.3407 75.0486 16.4782 74.6994 16.4782C74.3502 16.4782 74.0153 16.3407 73.7685 16.0958C73.5215 15.851 73.3828 15.519 73.3828 15.1728C73.3827 14.83 73.5179 14.5006 73.7594 14.2552C74.0009 14.0099 74.3296 13.8678 74.6753 13.8595ZM73.6879 26.5947V18.1338H75.6869V26.555L73.6879 26.5947Z" fill="white"/>
<path d="M80.3273 26.5548H78.3042V18.1336H80.2791V19.2559C80.5354 18.825 80.904 18.4705 81.3461 18.2296C81.7883 17.9887 82.2877 17.8703 82.7919 17.8868C84.8632 17.8868 85.8586 19.3752 85.8586 21.2298V26.5548H83.8356V21.572C83.8356 20.5374 83.3619 19.7016 82.0934 19.7016C81.841 19.7031 81.5917 19.7576 81.3619 19.8614C81.1322 19.9652 80.9272 20.116 80.7604 20.3039C80.5936 20.4918 80.4688 20.7126 80.3941 20.9518C80.3194 21.1909 80.2967 21.443 80.3273 21.6915V26.5548Z" fill="white"/>
<path d="M88.3232 26.5551V14.0347H90.3462V26.5551H88.3232Z" fill="white"/>
<path d="M93.9589 13.8594C94.3103 13.8594 94.6472 13.9977 94.8956 14.2441C95.1443 14.4903 95.2835 14.8244 95.2835 15.1727C95.2817 15.4302 95.2032 15.6815 95.0584 15.8949C94.913 16.1084 94.7074 16.2744 94.4671 16.3723C94.2268 16.4701 93.9628 16.4952 93.7081 16.4446C93.4535 16.394 93.2196 16.2699 93.036 16.0877C92.8524 15.9056 92.7271 15.6738 92.676 15.4213C92.625 15.1688 92.6504 14.9071 92.749 14.6689C92.8477 14.4307 93.0152 14.2268 93.2305 14.0827C93.4458 13.9387 93.6992 13.861 93.9589 13.8594ZM92.9635 26.5946V18.1337H94.9704V26.5549L92.9635 26.5946Z" fill="white"/>
<path d="M99.6109 26.5554H97.5879V18.1343H99.5549V19.2565C99.8118 18.8268 100.181 18.4733 100.623 18.2326C101.065 17.9918 101.564 17.8727 102.067 17.8874C104.147 17.8874 105.142 19.3759 105.142 21.2305V26.5554H103.119V21.5727C103.156 21.3304 103.137 21.0828 103.064 20.8486C102.992 20.6143 102.866 20.3994 102.698 20.2197C102.53 20.04 102.323 19.9002 102.093 19.8105C101.863 19.721 101.615 19.6839 101.368 19.7023C101.117 19.7037 100.868 19.7581 100.639 19.862C100.409 19.9659 100.204 20.1168 100.038 20.3049C99.8716 20.4929 99.7483 20.7139 99.6745 20.953C99.6007 21.1922 99.5792 21.4441 99.6109 21.6922V26.5554Z" fill="white"/>
<path d="M112.062 21.6918L115.627 26.5551H113.146L110.649 23.0847L109.606 24.1752V26.563H107.598V14.0347H109.606V21.5405L112.866 18.1339H115.555L112.062 21.6918Z" fill="white"/>
<path d="M16.7921 10.652L25.5428 15.6346V25.6397L16.8162 30.6543L8.06554 25.6796V15.6744L16.7921 10.652ZM16.7921 3.29736L13.5809 5.14397L4.83822 10.1664L1.62695 12.0131V15.6903V25.6875V29.3648L4.83822 31.1955L13.5889 36.1781L16.8001 38.0088L20.0115 36.1622L28.7381 31.1398L31.9493 29.3011V25.6239V15.6187V11.9414L28.7381 10.1107L19.9874 5.12806L16.7761 3.29736H16.7921Z" fill="#36BEFF"/>
</svg>
