<svg width="32" height="32" viewBox="0 0 32 32" fill="none" xmlns="http://www.w3.org/2000/svg">
<g clip-path="url(#clip0_521_621)">
<path d="M15.3049 3.28698L11.7861 6.80572C11.4029 7.18893 11.4029 7.81022 11.7861 8.19342L15.3049 11.7122C15.6881 12.0954 16.3094 12.0954 16.6926 11.7122L20.2113 8.19342C20.5945 7.81022 20.5945 7.18893 20.2113 6.80572L16.6926 3.28698C16.3094 2.90378 15.6881 2.90378 15.3049 3.28698Z" stroke="#36BEFF" stroke-width="3" stroke-linecap="round" stroke-linejoin="round"/>
<path d="M23.8054 11.787L20.2866 15.3057C19.9034 15.6889 19.9034 16.3102 20.2866 16.6934L23.8054 20.2122C24.1886 20.5954 24.8099 20.5954 25.1931 20.2122L28.7118 16.6934C29.095 16.3102 29.095 15.6889 28.7118 15.3057L25.1931 11.787C24.8099 11.4038 24.1886 11.4038 23.8054 11.787Z" stroke="#36BEFF" stroke-width="3" stroke-linecap="round" stroke-linejoin="round"/>
<path d="M6.80487 11.7878L3.28613 15.3066C2.90293 15.6898 2.90293 16.3111 3.28613 16.6943L6.80487 20.213C7.18808 20.5962 7.80937 20.5962 8.19257 20.213L11.7113 16.6943C12.0945 16.3111 12.0945 15.6898 11.7113 15.3066L8.19257 11.7878C7.80937 11.4046 7.18808 11.4046 6.80487 11.7878Z" stroke="#36BEFF" stroke-width="3" stroke-linecap="round" stroke-linejoin="round"/>
<path d="M15.3054 20.2878L11.7866 23.8066C11.4034 24.1898 11.4034 24.8111 11.7866 25.1943L15.3054 28.713C15.6886 29.0962 16.3099 29.0962 16.6931 28.713L20.2118 25.1943C20.595 24.8111 20.595 24.1898 20.2118 23.8066L16.6931 20.2878C16.3099 19.9046 15.6886 19.9046 15.3054 20.2878Z" stroke="#36BEFF" stroke-width="3" stroke-linecap="round" stroke-linejoin="round"/>
</g>
<defs>
<clipPath id="clip0_521_621">
<rect width="32" height="32" fill="white"/>
</clipPath>
</defs>
</svg>
