<svg width="25" height="25" viewBox="0 0 25 25" fill="none" xmlns="http://www.w3.org/2000/svg">
<path d="M20.2951 4.96064C18.908 4.31164 17.4248 3.83998 15.8742 3.57141C15.6838 3.91571 15.4613 4.37879 15.3079 4.74717C13.6596 4.49928 12.0264 4.49928 10.4084 4.74717C10.255 4.37879 10.0275 3.91571 9.83535 3.57141C8.28307 3.83998 6.79821 4.31337 5.4111 4.96407C2.61328 9.19193 1.85484 13.3148 2.23406 17.3791C4.08972 18.7648 5.88807 19.6067 7.65608 20.1575C8.09261 19.5567 8.48194 18.9181 8.81733 18.245C8.17856 18.0023 7.56675 17.7027 6.98867 17.355C7.14203 17.2414 7.29205 17.1226 7.43698 17.0004C10.9629 18.6495 14.7939 18.6495 18.2777 17.0004C18.4243 17.1226 18.5743 17.2414 18.726 17.355C18.1462 17.7044 17.5327 18.004 16.8939 18.2467C17.2293 18.9181 17.617 19.5585 18.0552 20.1592C19.8249 19.6084 21.6249 18.7666 23.4806 17.3791C23.9255 12.6675 22.7204 8.58254 20.2951 4.96064ZM9.29769 14.8796C8.23925 14.8796 7.37124 13.8915 7.37124 12.6882C7.37124 11.4849 8.22071 10.4951 9.29769 10.4951C10.3747 10.4951 11.2427 11.4832 11.2241 12.6882C11.2258 13.8915 10.3747 14.8796 9.29769 14.8796ZM16.4169 14.8796C15.3585 14.8796 14.4905 13.8915 14.4905 12.6882C14.4905 11.4849 15.3399 10.4951 16.4169 10.4951C17.4939 10.4951 18.3619 11.4832 18.3434 12.6882C18.3434 13.8915 17.4939 14.8796 16.4169 14.8796Z" fill="white"/>
</svg>
