<svg width="89" height="42" viewBox="0 0 89 42" fill="none" xmlns="http://www.w3.org/2000/svg">
<mask id="mask0_521_114" style="mask-type:luminance" maskUnits="userSpaceOnUse" x="4" y="9" width="81" height="25">
<path d="M84.627 9H4.62695V33.9036H84.627V9Z" fill="white"/>
</mask>
<g mask="url(#mask0_521_114)">
<path d="M78.7139 9L61.4863 33.6812H66.7756L84.0926 9H78.7139Z" fill="white"/>
<path d="M67.3266 9L72.3955 16.2727L69.7508 20.2397L61.9272 9H67.3266Z" fill="white"/>
<path d="M79.2273 33.6835L73.6074 25.6395L76.2521 21.7827L84.5165 33.6835H79.2273Z" fill="white"/>
<path fill-rule="evenodd" clip-rule="evenodd" d="M55.3155 9H59.9436V33.6812H55.3155V32.7593C53.9788 33.4888 52.4443 33.9036 50.8123 33.9036C45.6313 33.9036 41.4312 29.7224 41.4312 24.5647C41.4312 19.407 45.6313 15.2259 50.8123 15.2259C52.4443 15.2259 53.9788 15.6407 55.3155 16.3701V9ZM50.763 29.8048C53.6974 29.8048 56.0763 27.4367 56.0763 24.5155C56.0763 21.5944 53.6974 19.2263 50.763 19.2263C47.8285 19.2263 45.4497 21.5944 45.4497 24.5155C45.4497 27.4367 47.8285 29.8048 50.763 29.8048Z" fill="white"/>
<path d="M41.8918 9L24.6821 33.6812H30.0773L47.2705 9H41.8918Z" fill="white"/>
<path d="M30.0812 9L35.4807 16.4931L32.5055 20.6804L24.4614 9H30.0812Z" fill="white"/>
<path fill-rule="evenodd" clip-rule="evenodd" d="M18.5112 9H23.1393V33.6812H18.5112V32.7593C17.1746 33.4888 15.64 33.9036 14.0082 33.9036C8.82706 33.9036 4.62695 29.7224 4.62695 24.5647C4.62695 19.407 8.82706 15.2259 14.0082 15.2259C15.64 15.2259 17.1746 15.6407 18.5112 16.3701V9ZM13.9587 29.8048C16.8932 29.8048 19.272 27.4367 19.272 24.5155C19.272 21.5944 16.8932 19.2263 13.9587 19.2263C11.0243 19.2263 8.64551 21.5944 8.64551 24.5155C8.64551 27.4367 11.0243 29.8048 13.9587 29.8048Z" fill="white"/>
</g>
</svg>
