<svg width="135" height="42" viewBox="0 0 135 42" fill="none" xmlns="http://www.w3.org/2000/svg">
<mask id="mask0_521_129" style="mask-type:luminance" maskUnits="userSpaceOnUse" x="14" y="2" width="107" height="37">
<path d="M120.819 2.97754H14.627V38.507H120.819V2.97754Z" fill="white"/>
</mask>
<g mask="url(#mask0_521_129)">
<path d="M105.466 36.2697V38.5066H120.818V28.4186H118.581V36.2697H105.466ZM105.466 2.97754V5.21436H118.581V13.0661H120.818V2.97754H105.466ZM97.5496 20.2818V15.0842H101.058C102.769 15.0842 103.383 15.6543 103.383 17.2117V18.1326C103.383 19.7335 102.791 20.2818 101.058 20.2818H97.5496ZM103.12 21.2028C104.72 20.7861 105.839 19.2945 105.839 17.5185C105.839 16.4 105.4 15.391 104.567 14.5794C103.514 13.5703 102.11 13.0661 100.29 13.0661H95.3563V28.418H97.5496V22.2994H100.839C102.528 22.2994 103.208 23.0012 103.208 24.756V28.4186H105.444V25.1069C105.444 22.6944 104.874 21.7734 103.12 21.5101V21.2028ZM84.6542 21.7071H91.4092V19.6895H84.6542V15.0836H92.0668V13.0661H82.4168V28.418H92.396V26.4004H84.6542V21.7071ZM77.3067 22.5187V23.5712C77.3067 25.7863 76.4951 26.5103 74.4557 26.5103H73.9733C71.9333 26.5103 70.9466 25.8521 70.9466 22.8037V18.6804C70.9466 15.6102 71.9775 14.9738 74.0168 14.9738H74.4553C76.4511 14.9738 77.0869 15.7196 77.1087 17.7812H79.5212C79.302 14.7545 77.2845 12.8468 74.2578 12.8468C72.7886 12.8468 71.5603 13.3076 70.6393 14.1845C69.2576 15.4786 68.4901 17.6719 68.4901 20.742C68.4901 23.7029 69.1483 25.8962 70.5077 27.2556C71.4286 28.1548 72.701 28.6373 73.951 28.6373C75.2668 28.6373 76.4734 28.1107 77.087 26.9705H77.3938V28.418H79.4114V20.5011H73.4679V22.5187H77.3067ZM57.9637 15.0836H60.3544C62.6135 15.0836 63.8418 15.6537 63.8418 18.7245V22.7596C63.8418 25.8298 62.6135 26.4004 60.3544 26.4004H57.9637V15.0836ZM60.5513 28.4186C64.7405 28.4186 66.2972 25.2385 66.2972 20.7426C66.2972 16.1808 64.6306 13.0666 60.5073 13.0666H55.7698V28.4186H60.5513ZM45.1776 21.7071H51.9326V19.6895H45.1776V15.0836H52.5903V13.0661H42.9402V28.418H52.9193V26.4004H45.1776V21.7071ZM32.2381 13.0661H30.0013V28.418H40.0898V26.4004H32.2381V13.0661ZM14.627 28.4186V38.5071H29.979V36.2697H16.8638V28.4186H14.627ZM14.627 2.97754V13.0661H16.8638V5.21436H29.979V2.97754H14.627Z" fill="white"/>
</g>
</svg>
