<svg width="110" height="45" viewBox="0 0 110 45" fill="none" xmlns="http://www.w3.org/2000/svg">
<path d="M57.7892 32L55 29.1384V15.8616L57.7892 13H67.3127L70.127 15.8616V19.7028H65.5537V17.5631L64.6491 16.6608H60.6035L59.6989 17.5631V27.4369L60.6035 28.3392H64.7999L65.7296 27.4369V25.2714H70.2778V29.1384L67.4886 32H57.7892Z" fill="white"/>
<path d="M77.1358 32L74.3465 29.1384V15.8616L77.1358 13H87.4885L90.2777 15.8616V19.3677L85.7044 19.3419V17.5631L84.7998 16.6608H79.9501L79.0455 17.5631V27.4111L79.9501 28.3392H83.8952L86.3075 26.1479V25.4776H82.9152V21.791H90.5541V32H86.5839V30.2985L84.7244 32H77.1358Z" fill="white"/>
<path d="M94.8227 32V13H107.211L110 15.8616V23.1832L107.211 26.0448H99.5217V32H94.8227ZM99.5217 22.384H104.572L105.452 21.4817V17.5631L104.572 16.6608H99.5217V22.384Z" fill="white"/>
<path d="M39.7705 11.75L20.385 1L1 11.75M39.7705 11.75V33.25L20.385 44L1 33.25V11.75M39.7705 11.75L36.7779 13.4095M1 11.75L3.99262 13.4095M36.7779 13.4095L20.385 4.31901M36.7779 13.4095V31.5905L20.385 40.6815L3.99262 31.5905V13.4095M20.385 4.31901L3.99262 13.4095M20.385 4.31901V7.25614M20.385 7.25614L34.1293 14.8781V30.1219L20.385 37.7439L6.64067 30.1219V14.8781L20.385 7.25614Z" stroke="white" stroke-width="1.2" stroke-miterlimit="10"/>
<path d="M34.131 15.0983L20.3851 21.795L6.99167 15.0983" stroke="white" stroke-width="1.2"/>
<path d="M34.131 22.6368L20.3851 29.3335L6.99169 22.6368" stroke="white" stroke-width="1.2"/>
</svg>
