<svg width="32" height="32" viewBox="0 0 32 32" fill="none" xmlns="http://www.w3.org/2000/svg">
<g clip-path="url(#clip0_521_151)">
<path d="M31.1533 16C31.1533 24.8366 24.207 32 15.6382 32C7.06942 32 0.123047 24.8366 0.123047 16C0.123047 7.16344 7.06942 0 15.6382 0C24.207 0 31.1533 7.16344 31.1533 16Z" fill="url(#paint0_linear_521_151)"/>
<path opacity="0.8" fill-rule="evenodd" clip-rule="evenodd" d="M11.5124 8C10.5776 8 9.81982 8.78147 9.81982 9.74545V22.9212C9.81982 23.8852 10.5776 24.6667 11.5124 24.6667H19.1172C20.052 24.6667 20.8098 23.8852 20.8098 22.9212V9.74545C20.8098 8.78147 20.052 8 19.1172 8H11.5124ZM16.2085 12.4363C15.9651 11.9657 15.311 11.9657 15.0676 12.4363L13.2144 16.0196C13.113 16.2157 13.113 16.451 13.2144 16.6471L15.0676 20.2304C15.311 20.701 15.9651 20.701 16.2085 20.2304L18.0617 16.6471C18.1631 16.451 18.1631 16.2157 18.0617 16.0196L16.2085 12.4363Z" fill="white"/>
<path opacity="0.3" fill-rule="evenodd" clip-rule="evenodd" d="M17.9773 5.3335C17.0425 5.3335 16.2847 6.11496 16.2847 7.07895V12.5831L18.0619 16.0197C18.1634 16.2158 18.1634 16.4511 18.0619 16.6472L16.4393 19.7847C16.7074 20.3841 17.2952 20.8002 17.9773 20.8002H24.5908C25.5255 20.8002 26.2833 20.0187 26.2833 19.0547V7.07895C26.2833 6.11496 25.5255 5.3335 24.5908 5.3335H17.9773Z" fill="white"/>
<path opacity="0.6" fill-rule="evenodd" clip-rule="evenodd" d="M6.341 10.667C5.40623 10.667 4.64844 11.4485 4.64844 12.4124V24.3882C4.64844 25.3522 5.40623 26.1337 6.341 26.1337H12.9546C13.8893 26.1337 14.6471 25.3522 14.6471 24.3882V19.4167L13.2149 16.6474C13.1135 16.4513 13.1135 16.2161 13.2149 16.02L14.6471 13.2507V12.4124C14.6471 11.4485 13.8893 10.667 12.9546 10.667H6.341Z" fill="white"/>
</g>
<defs>
<linearGradient id="paint0_linear_521_151" x1="0.123047" y1="0.666667" x2="31.4416" y2="31.0361" gradientUnits="userSpaceOnUse">
<stop stop-color="#0A8AC8"/>
<stop offset="1" stop-color="#95E7F9"/>
</linearGradient>
<clipPath id="clip0_521_151">
<rect width="32" height="32" fill="white"/>
</clipPath>
</defs>
</svg>
