<svg width="32" height="32" viewBox="0 0 32 32" fill="none" xmlns="http://www.w3.org/2000/svg">
<g clip-path="url(#clip0_521_202)">
<path d="M31.1533 16C31.1533 24.8366 24.207 32 15.6382 32C7.06942 32 0.123047 24.8366 0.123047 16C0.123047 7.16344 7.06942 0 15.6382 0C24.207 0 31.1533 7.16344 31.1533 16Z" fill="url(#paint0_linear_521_202)"/>
<path opacity="0.3" d="M22.9089 16.4395H8.36713C7.48912 16.4395 6.77734 17.1735 6.77734 18.0789V22.6322C6.77734 23.5376 7.48912 24.2716 8.36713 24.2716H22.9089C23.7869 24.2716 24.4987 23.5376 24.4987 22.6322V18.0789C24.4987 17.1735 23.7869 16.4395 22.9089 16.4395Z" fill="white"/>
<path opacity="0.5" d="M23.4151 12.2637H7.86079C6.98277 12.2637 6.271 12.9977 6.271 13.9031V18.9785C6.271 19.884 6.98277 20.618 7.86079 20.618H23.4151C24.2931 20.618 25.0049 19.884 25.0049 18.9785V13.9031C25.0049 12.9977 24.2931 12.2637 23.4151 12.2637Z" fill="white"/>
<path d="M23.9219 7.56445H7.35493C6.47691 7.56445 5.76514 8.29847 5.76514 9.20392V15.8457C5.76514 16.7512 6.47691 17.4852 7.35493 17.4852H23.9219C24.7999 17.4852 25.5117 16.7512 25.5117 15.8457V9.20392C25.5117 8.29847 24.7999 7.56445 23.9219 7.56445Z" fill="white"/>
</g>
<defs>
<linearGradient id="paint0_linear_521_202" x1="0.123047" y1="20.3636" x2="27.4769" y2="8.48269" gradientUnits="userSpaceOnUse">
<stop stop-color="#18B1FF"/>
<stop offset="1" stop-color="#83D5FF"/>
</linearGradient>
<clipPath id="clip0_521_202">
<rect width="32" height="32" fill="white"/>
</clipPath>
</defs>
</svg>
