<svg width="141" height="42" viewBox="0 0 141 42" fill="none" xmlns="http://www.w3.org/2000/svg">
<mask id="mask0_521_73" style="mask-type:luminance" maskUnits="userSpaceOnUse" x="2" y="5" width="137" height="31">
<path d="M138.097 5H2.62695V36H138.097V5Z" fill="white"/>
</mask>
<g mask="url(#mask0_521_73)">
<path fill-rule="evenodd" clip-rule="evenodd" d="M33.6269 20.5C33.6269 29.0599 26.6869 36 18.1269 36C9.56701 36 2.62695 29.0599 2.62695 20.5C2.62695 11.9401 9.56701 5 18.1269 5C26.6887 5 33.6269 11.9401 33.6269 20.5ZM10.274 21.0209L10.3408 20.9157L14.373 14.6079C14.4319 14.5156 14.5705 14.5251 14.6151 14.6254C15.2887 16.1351 15.8699 18.0127 15.5976 19.1815C15.4814 19.6625 15.1629 20.3138 14.8046 20.9157C14.7584 21.0034 14.7074 21.0893 14.6533 21.1721C14.6278 21.2104 14.5848 21.2327 14.5386 21.2327H10.3918C10.2803 21.2327 10.215 21.1116 10.274 21.0209ZM28.2467 23.1914V22.1929C28.2467 22.1005 28.1575 22.0337 28.0699 22.0591L23.3546 23.4223C23.3291 23.4287 23.3068 23.443 23.2893 23.4621C22.7843 24.02 22.3551 24.3943 22.2414 24.4935L22.2335 24.5004C21.9405 24.7488 21.5774 24.8842 21.1952 24.8842H19.488V23.1436H20.8449C20.8799 23.1436 20.9133 23.1309 20.9388 23.1086L21.114 22.9477C21.1888 22.8792 21.278 22.7964 21.3847 22.6897C21.3938 22.6807 21.403 22.6715 21.4123 22.6622C21.4683 22.6064 21.5282 22.5467 21.5869 22.4811C21.657 22.4127 21.7255 22.3362 21.7892 22.2614C21.8959 22.1467 21.9978 22.0273 22.1045 21.9015C22.181 21.8187 22.251 21.7247 22.3195 21.6308C22.3959 21.5416 22.4708 21.4413 22.5408 21.3457C22.5669 21.3074 22.5947 21.2686 22.623 21.2291C22.6501 21.1913 22.6777 21.1528 22.7049 21.1132C22.7558 21.0368 22.8068 20.9555 22.8498 20.8791C22.9835 20.6721 23.0966 20.4507 23.1922 20.2294C23.236 20.1346 23.2711 20.0347 23.3052 19.9377C23.3095 19.9255 23.3137 19.9134 23.318 19.9013C23.3562 19.7882 23.388 19.6816 23.4119 19.5685C23.4693 19.3025 23.482 19.0382 23.4565 18.7738C23.4502 18.691 23.4438 18.6098 23.4247 18.5334V18.5207C23.4183 18.4665 23.4055 18.406 23.388 18.3502C23.3307 18.0923 23.2415 17.8343 23.1285 17.5811C23.0902 17.4871 23.0457 17.3916 23.0027 17.304C22.9007 17.1145 22.794 16.925 22.673 16.7418C22.6487 16.7032 22.6219 16.664 22.5951 16.6249C22.5745 16.5947 22.5539 16.5646 22.5345 16.5348C22.4578 16.4166 22.3717 16.3026 22.288 16.1921C22.2691 16.1671 22.2504 16.1422 22.2319 16.1176C22.1825 16.0528 22.1285 15.988 22.0741 15.9227C22.0443 15.887 22.0144 15.8511 21.9851 15.815C21.9023 15.7147 21.821 15.6191 21.7382 15.5252C21.442 15.1908 21.1315 14.8882 20.8544 14.6302C20.8034 14.5792 20.7477 14.5283 20.6904 14.4789C20.4754 14.283 20.2795 14.1126 20.1155 13.9805C20.0662 13.9426 20.022 13.9052 19.9809 13.8704C19.9529 13.8468 19.9263 13.8243 19.9005 13.8037C19.8508 13.7667 19.8077 13.7338 19.7714 13.7062C19.7485 13.6887 19.7283 13.6734 19.711 13.6604C19.6983 13.6508 19.6839 13.6445 19.6696 13.6397L19.488 13.5887V12.0854C19.488 11.8402 19.3893 11.6204 19.2317 11.4596C19.074 11.2987 18.8543 11.2 18.6122 11.2C18.1281 11.2 17.7363 11.5965 17.7363 12.0854V13.0982L17.6456 13.0728L17.3987 13.0027L17.1742 12.9406L17.1721 12.94L17.1678 12.939H17.163L15.4591 12.4772C15.3842 12.4565 15.3205 12.5377 15.3588 12.6062L15.6311 13.1094C15.6465 13.1481 15.6661 13.1867 15.6862 13.2265C15.6993 13.2522 15.7125 13.2784 15.725 13.3053C15.7696 13.3944 15.8142 13.4884 15.8572 13.5823C15.8954 13.6652 15.9336 13.7464 15.9782 13.8356C15.997 13.8775 16.0161 13.9199 16.0355 13.9629C16.1066 14.121 16.1815 14.2872 16.2553 14.4662C16.319 14.6175 16.3827 14.7688 16.4385 14.9264C16.5913 15.3229 16.7362 15.7465 16.8621 16.1813C16.8934 16.2786 16.9184 16.3728 16.9438 16.4682C16.9545 16.5086 16.9653 16.5493 16.9767 16.5906L16.9942 16.667C17.0452 16.8692 17.0898 17.0699 17.1216 17.2721C17.1471 17.4107 17.171 17.5428 17.1837 17.6766C17.2029 17.8279 17.2219 17.9792 17.2283 18.1305C17.2411 18.269 17.2474 18.4139 17.2474 18.5525C17.2474 18.906 17.2156 19.2468 17.1407 19.5685C17.136 19.5858 17.1314 19.6033 17.1266 19.6209C17.1057 19.6992 17.0839 19.7803 17.0579 19.8583C17.0344 19.9418 17.0039 20.0253 16.9723 20.112C16.9611 20.1427 16.9497 20.1738 16.9385 20.2055C16.9364 20.2111 16.9343 20.2167 16.9322 20.2224C16.9088 20.2855 16.8849 20.3497 16.8557 20.4125C16.698 20.7915 16.5022 21.1689 16.2999 21.5225C16.0037 22.0464 15.7059 22.5066 15.4973 22.8028C15.4845 22.822 15.4721 22.8402 15.4601 22.8577C15.4452 22.8795 15.4309 22.9003 15.4177 22.9207C15.3524 23.013 15.4193 23.1436 15.5323 23.1436H17.7363V24.8842H15.5068C14.9081 24.8842 14.3539 24.545 14.0864 24.0019C13.9478 23.7296 13.8937 23.4302 13.9255 23.1372C13.9335 23.0497 13.8682 22.9669 13.779 22.9669H9.27549C9.19904 22.9669 9.13695 23.0289 9.13695 23.1054V23.1977C9.13695 26.0706 11.4572 28.3988 14.3204 28.3988H22.3991C23.9134 28.3988 24.7733 27.0188 25.6185 25.6625C25.8541 25.2844 26.0886 24.9081 26.3357 24.5641C26.78 23.9462 27.8486 23.4557 28.1607 23.322C28.2117 23.2997 28.2467 23.2487 28.2467 23.1914Z" fill="#36BEFF"/>
<path d="M48.731 27.9388C47.3298 27.9388 46.0418 27.6248 44.8672 26.9968C43.7065 26.3688 42.7793 25.495 42.0859 24.3756C41.4066 23.2424 41.0669 21.9727 41.0669 20.5666C41.0669 19.1604 41.4066 17.8975 42.0859 16.7781C42.7793 15.6586 43.7065 14.7848 44.8672 14.1568C46.0418 13.5288 47.3298 13.2148 48.731 13.2148C50.1322 13.2148 51.4131 13.5288 52.5738 14.1568C53.7487 14.7848 54.6685 15.6586 55.3337 16.7781C56.0132 17.8975 56.3527 19.1604 56.3527 20.5666C56.3527 21.9727 56.0132 23.2424 55.3337 24.3756C54.6545 25.495 53.7344 26.3688 52.5738 26.9968C51.4131 27.6248 50.1322 27.9388 48.731 27.9388ZM48.731 24.7441C49.9199 24.7441 50.8682 24.3619 51.5759 23.5974C52.2979 22.8328 52.6587 21.8226 52.6587 20.5666C52.6587 19.2969 52.2979 18.2867 51.5759 17.5358C50.8682 16.7713 49.9199 16.389 48.731 16.389C47.5279 16.389 46.5657 16.7644 45.8437 17.5153C45.1359 18.2662 44.7822 19.2832 44.7822 20.5666C44.7822 21.8362 45.1359 22.8533 45.8437 23.6179C46.5657 24.3687 47.5279 24.7441 48.731 24.7441Z" fill="white"/>
<path d="M62.003 17.9862C62.3567 17.4538 62.845 17.0237 63.4677 16.6961C64.0905 16.3684 64.8193 16.2046 65.6545 16.2046C66.631 16.2046 67.5157 16.4435 68.3084 16.9213C69.1008 17.3992 69.7235 18.0818 70.1764 18.9692C70.6436 19.8566 70.8771 20.8873 70.8771 22.0614C70.8771 23.2355 70.6436 24.2731 70.1764 25.1741C69.7235 26.0615 69.1008 26.7509 68.3084 27.2424C67.5157 27.7203 66.631 27.9592 65.6545 27.9592C64.8336 27.9592 64.1048 27.7954 63.4677 27.4677C62.845 27.1401 62.3567 26.7168 62.003 26.198V31.1948H58.3726V16.3684H62.003V17.9862ZM67.1831 22.0614C67.1831 21.1877 66.9283 20.5051 66.4186 20.0136C65.9232 19.5084 65.3076 19.2559 64.5717 19.2559C63.85 19.2559 63.2343 19.5084 62.7247 20.0136C62.2293 20.5187 61.9816 21.2081 61.9816 22.0819C61.9816 22.9556 62.2293 23.6451 62.7247 24.1502C63.2343 24.6553 63.85 24.9079 64.5717 24.9079C65.2936 24.9079 65.9093 24.6553 66.4186 24.1502C66.9283 23.6314 67.1831 22.9352 67.1831 22.0614Z" fill="white"/>
<path d="M83.9489 21.8976C83.9489 22.2253 83.9278 22.5665 83.8853 22.9215H75.6691C75.7258 23.6314 75.9592 24.1775 76.3697 24.5598C76.7944 24.9284 77.3108 25.1127 77.9197 25.1127C78.8255 25.1127 79.4551 24.7441 79.8091 24.0069H83.673C83.4749 24.7577 83.114 25.4335 82.5901 26.0342C82.0808 26.6349 81.4366 27.1059 80.6582 27.4472C79.8798 27.7885 79.0093 27.9592 78.0471 27.9592C76.8865 27.9592 75.8532 27.7203 74.9474 27.2425C74.0416 26.7646 73.3338 26.082 72.8242 25.1946C72.3149 24.3072 72.0601 23.2696 72.0601 22.0819C72.0601 20.8941 72.3078 19.8566 72.8031 18.9692C73.3125 18.0818 74.0202 17.3992 74.926 16.9213C75.8318 16.4435 76.8722 16.2046 78.0471 16.2046C79.1935 16.2046 80.2124 16.4367 81.104 16.9009C81.9959 17.365 82.6893 18.0272 83.1847 18.8873C83.6944 19.7474 83.9489 20.7508 83.9489 21.8976ZM80.2338 20.976C80.2338 20.3754 80.0215 19.8975 79.5968 19.5426C79.1721 19.1876 78.6414 19.0102 78.0046 19.0102C77.3958 19.0102 76.8793 19.1808 76.4546 19.5221C76.0442 19.8634 75.7894 20.3481 75.6905 20.976H80.2338Z" fill="white"/>
<path d="M93.0827 16.2456C94.4696 16.2456 95.5735 16.6825 96.3944 17.5562C97.2296 18.4163 97.6471 19.6041 97.6471 21.1195V27.7954H94.0378V21.5904C94.0378 20.8259 93.8326 20.2321 93.4221 19.8088C93.0117 19.3856 92.4599 19.174 91.7664 19.174C91.0726 19.174 90.5208 19.3856 90.1104 19.8088C89.7 20.2321 89.4947 20.8259 89.4947 21.5904V27.7954H85.8643V16.3685H89.4947V17.8839C89.8627 17.3787 90.3581 16.9828 90.9809 16.6961C91.6034 16.3958 92.304 16.2456 93.0827 16.2456Z" fill="white"/>
<path d="M105.562 27.9388C104.473 27.9388 103.496 27.7681 102.632 27.4268C101.769 27.0855 101.076 26.5804 100.552 25.9114C100.042 25.2425 99.7733 24.437 99.7451 23.495H103.609C103.666 24.0274 103.857 24.437 104.182 24.7237C104.508 24.9967 104.932 25.1333 105.456 25.1333C105.994 25.1333 106.418 25.0172 106.73 24.7851C107.041 24.5394 107.197 24.2049 107.197 23.7817C107.197 23.4267 107.07 23.1332 106.815 22.9011C106.574 22.669 106.27 22.4779 105.902 22.3277C105.548 22.1775 105.039 22.0069 104.373 21.8158C103.411 21.529 102.625 21.2424 102.017 20.9557C101.408 20.669 100.885 20.2457 100.446 19.686C100.007 19.1263 99.7876 18.3959 99.7876 17.4948C99.7876 16.1569 100.29 15.1125 101.295 14.3616C102.3 13.5971 103.609 13.2148 105.223 13.2148C106.865 13.2148 108.188 13.5971 109.193 14.3616C110.198 15.1125 110.736 16.1637 110.806 17.5153H106.879C106.85 17.0511 106.673 16.6893 106.348 16.4299C106.022 16.1569 105.605 16.0204 105.095 16.0204C104.656 16.0204 104.303 16.1364 104.034 16.3685C103.765 16.5869 103.63 16.9078 103.63 17.331C103.63 17.7952 103.857 18.157 104.31 18.4163C104.763 18.6757 105.47 18.9556 106.433 19.256C107.395 19.57 108.174 19.8703 108.768 20.157C109.377 20.4437 109.9 20.8601 110.339 21.4062C110.778 21.9523 110.997 22.6554 110.997 23.5155C110.997 24.3346 110.778 25.0786 110.339 25.7476C109.915 26.4166 109.292 26.949 108.471 27.3449C107.65 27.7408 106.68 27.9388 105.562 27.9388Z" fill="white"/>
<path d="M124.399 21.8976C124.399 22.2253 124.377 22.5665 124.335 22.9215H116.119C116.175 23.6314 116.409 24.1775 116.819 24.5598C117.244 24.9284 117.761 25.1127 118.369 25.1127C119.275 25.1127 119.905 24.7441 120.259 24.0069H124.122C123.924 24.7577 123.564 25.4335 123.04 26.0342C122.53 26.6349 121.886 27.1059 121.108 27.4472C120.329 27.7885 119.459 27.9592 118.497 27.9592C117.336 27.9592 116.303 27.7203 115.397 27.2425C114.491 26.7646 113.783 26.082 113.274 25.1946C112.764 24.3072 112.51 23.2696 112.51 22.0819C112.51 20.8941 112.757 19.8566 113.253 18.9692C113.762 18.0818 114.47 17.3992 115.376 16.9213C116.281 16.4435 117.322 16.2046 118.497 16.2046C119.643 16.2046 120.662 16.4367 121.554 16.9009C122.445 17.365 123.139 18.0272 123.634 18.8873C124.144 19.7474 124.399 20.7508 124.399 21.8976ZM120.683 20.976C120.683 20.3754 120.471 19.8975 120.046 19.5426C119.622 19.1876 119.091 19.0102 118.454 19.0102C117.846 19.0102 117.329 19.1808 116.904 19.5221C116.494 19.8634 116.239 20.3481 116.14 20.976H120.683Z" fill="white"/>
<path d="M125.592 22.0614C125.592 20.8873 125.819 19.8566 126.271 18.9692C126.738 18.0818 127.368 17.3992 128.161 16.9213C128.954 16.4435 129.838 16.2046 130.815 16.2046C131.65 16.2046 132.379 16.3684 133.002 16.6961C133.638 17.0237 134.127 17.4538 134.466 17.9862V16.3684H138.097V27.7954H134.466V26.1776C134.113 26.71 133.617 27.1401 132.98 27.4677C132.357 27.7954 131.629 27.9592 130.793 27.9592C129.831 27.9592 128.954 27.7203 128.161 27.2425C127.368 26.7509 126.738 26.0615 126.271 25.1741C125.819 24.2731 125.592 23.2355 125.592 22.0614ZM134.466 22.0819C134.466 21.2081 134.211 20.5187 133.702 20.0136C133.207 19.5084 132.598 19.2559 131.876 19.2559C131.154 19.2559 130.539 19.5084 130.029 20.0136C129.534 20.5051 129.286 21.1877 129.286 22.0614C129.286 22.9352 129.534 23.6314 130.029 24.1502C130.539 24.6553 131.154 24.9079 131.876 24.9079C132.598 24.9079 133.207 24.6553 133.702 24.1502C134.211 23.6451 134.466 22.9556 134.466 22.0819Z" fill="white"/>
</g>
</svg>
