<svg width="61" height="61" viewBox="0 0 61 61" fill="none" xmlns="http://www.w3.org/2000/svg">
<path d="M30.5 61C47.3447 61 61 47.3447 61 30.5C61 13.6553 47.3447 0 30.5 0C13.6553 0 0 13.6553 0 30.5C0 47.3447 13.6553 61 30.5 61Z" fill="#FF0420"/>
<path d="M21.6114 38.606C19.7954 38.606 18.3074 38.1787 17.1477 37.3241C16.003 36.4541 15.4307 35.218 15.4307 33.6156C15.4307 33.2798 15.4689 32.8677 15.5451 32.3793C15.7437 31.2806 16.026 29.9605 16.3921 28.4191C17.4299 24.2223 20.1083 22.1239 24.4271 22.1239C25.6023 22.1239 26.6552 22.3223 27.5862 22.7191C28.5172 23.1005 29.2498 23.6806 29.7838 24.4589C30.318 25.2218 30.5851 26.1376 30.5851 27.2058C30.5851 27.5263 30.547 27.9308 30.4706 28.4191C30.2417 29.7774 29.967 31.0974 29.6466 32.3793C29.1124 34.4702 28.1891 36.0345 26.8766 37.0722C25.5641 38.0947 23.8092 38.606 21.6114 38.606ZM21.932 35.3095C22.7867 35.3095 23.5114 35.0578 24.1067 34.5541C24.7172 34.0506 25.1522 33.2798 25.4116 32.2421C25.7625 30.8075 26.0297 29.556 26.2128 28.4878C26.2738 28.1673 26.3043 27.8393 26.3043 27.5034C26.3043 26.1146 25.5793 25.4202 24.1297 25.4202C23.275 25.4202 22.5424 25.6721 21.932 26.1756C21.3368 26.6794 20.9095 27.4501 20.6501 28.4878C20.3753 29.5103 20.1006 30.7618 19.826 32.2421C19.7649 32.5472 19.7344 32.8677 19.7344 33.2035C19.7344 34.6076 20.4669 35.3095 21.932 35.3095Z" fill="white"/>
<path d="M31.6354 38.3777C31.4675 38.3777 31.3377 38.3242 31.2462 38.2173C31.1699 38.0952 31.1471 37.9579 31.1776 37.8053L34.3366 22.9257C34.3671 22.7578 34.451 22.6204 34.5884 22.5135C34.7258 22.4067 34.8707 22.3533 35.0234 22.3533H41.1126C42.8066 22.3533 44.1648 22.7043 45.1873 23.4062C46.2252 24.1083 46.7441 25.1233 46.7441 26.4509C46.7441 26.8324 46.6982 27.2294 46.6067 27.6412C46.2252 29.3963 45.4545 30.6936 44.2947 31.5329C43.15 32.3724 41.5781 32.792 39.5788 32.792H36.4884L35.4354 37.8053C35.4049 37.9732 35.321 38.1104 35.1837 38.2173C35.0463 38.3242 34.9012 38.3777 34.7487 38.3777H31.6354ZM39.7391 29.6329C40.3801 29.6329 40.937 29.4573 41.4102 29.1064C41.8985 28.7554 42.2191 28.2518 42.3717 27.5955C42.4175 27.3361 42.4404 27.1072 42.4404 26.9088C42.4404 26.4661 42.3107 26.1305 42.0512 25.9016C41.7916 25.6573 41.3492 25.5353 40.7234 25.5353H37.9764L37.1065 29.6329H39.7391Z" fill="white"/>
</svg>
