<svg width="33" height="32" viewBox="0 0 33 32" fill="none" xmlns="http://www.w3.org/2000/svg">
<path d="M24.6258 22.1645L32.383 17.2475C32.7942 16.9863 33.0482 16.5019 33.0482 15.9821V6.14786C33.0482 5.62801 32.7942 5.14365 32.383 4.88245L24.6258 -0.0346355C24.2146 -0.295833 23.7041 -0.293297 23.2952 -0.0346355L15.538 4.88245C15.1268 5.14365 14.8727 5.62801 14.8727 6.14786V23.7216L9.43247 27.1679L3.99231 23.7216V16.8265L9.43247 13.3802L13.02 15.6549V11.0295L10.0978 9.17575C9.89683 9.04893 9.66579 8.98049 9.43247 8.98049C9.19915 8.98049 8.96817 9.04893 8.7672 9.17575L1.01002 14.0928C0.598833 14.354 0.344727 14.8384 0.344727 15.3582V25.1924C0.344727 25.7123 0.598833 26.1967 1.01002 26.4579L8.7672 31.3749C9.17839 31.6336 9.68661 31.6336 10.0978 31.3749L17.855 26.4579C18.2662 26.1967 18.5203 25.7123 18.5203 25.1924V7.61868L18.6173 7.55782L23.9581 4.1724L29.3984 7.61868V14.5138L23.9581 17.9601L20.3752 15.6904V20.3159L23.2929 22.1645C23.7041 22.4232 24.2146 22.4232 24.6235 22.1645H24.6258Z" fill="url(#paint0_linear_521_532)"/>
<defs>
<linearGradient id="paint0_linear_521_532" x1="0.238461" y1="26.1561" x2="33.051" y2="8.80668" gradientUnits="userSpaceOnUse">
<stop stop-color="#A726C1"/>
<stop offset="0.88" stop-color="#803BDF"/>
<stop offset="1" stop-color="#7B3FE4"/>
</linearGradient>
</defs>
</svg>
