<svg width="34" height="35" viewBox="0 0 34 35" fill="none" xmlns="http://www.w3.org/2000/svg">
<path d="M25.2505 10.4247C24.641 10.0158 23.8574 10.0158 23.1608 10.4247L18.2847 13.7977L14.9759 15.9441L10.187 19.317C9.5775 19.7259 8.7938 19.7259 8.09725 19.317L4.35314 16.6595C3.74363 16.2507 3.30826 15.4331 3.30826 14.5131V9.40252C3.30826 8.5849 3.65655 7.76718 4.35314 7.25612L8.09725 4.70084C8.70673 4.29199 9.49043 4.29199 10.187 4.70084L13.9311 7.35833C14.5406 7.76718 14.9759 8.5849 14.9759 9.50476V12.8777L18.2847 10.6291V7.15391C18.2847 6.33622 17.9364 5.51853 17.2399 5.00747L10.2741 0.203546C9.66457 -0.2053 8.88087 -0.2053 8.18432 0.203546L1.04438 5.10969C0.347798 5.51853 -0.000488281 6.33622 -0.000488281 7.15391V16.7618C-0.000488281 17.5795 0.347798 18.3972 1.04438 18.9082L8.09725 23.7121C8.70673 24.121 9.49043 24.121 10.187 23.7121L14.9759 20.4413L18.2847 18.1927L23.0737 14.922C23.6832 14.5131 24.4668 14.5131 25.1635 14.922L28.9076 17.4772C29.5171 17.8861 29.9524 18.7038 29.9524 19.6237V24.7342C29.9524 25.5519 29.6041 26.3696 28.9076 26.8806L25.2505 29.436C24.641 29.8448 23.8574 29.8448 23.1608 29.436L19.4167 26.8806C18.8071 26.4719 18.3718 25.6542 18.3718 24.7342V21.4635L15.063 23.7121V27.0851C15.063 27.9028 15.4114 28.7205 16.1079 29.2315L23.1608 34.0355C23.7703 34.4443 24.5539 34.4443 25.2505 34.0355L32.3034 29.2315C32.9129 28.8227 33.3483 28.005 33.3483 27.0851V17.375C33.3483 16.5574 33 15.7397 32.3034 15.2286L25.2505 10.4247Z" fill="#8247E5"/>
</svg>
