<svg width="105" height="42" viewBox="0 0 105 42" fill="none" xmlns="http://www.w3.org/2000/svg">
<path d="M39.6431 28.401V20.7517C39.5856 20.1206 39.6925 19.4852 39.9533 18.9076C40.2141 18.3299 40.6199 17.8296 41.1313 17.4553C42.1177 16.7769 43.322 16.4915 44.5079 16.6551V12.0784C43.4672 12.0751 42.4448 12.3514 41.5474 12.8786C40.6573 13.394 39.9816 14.2116 39.6431 15.1828V12.3984H35.4824V28.401H39.6431ZM53.0773 28.849C54.1929 28.8651 55.3004 28.6578 56.3346 28.2393C57.3687 27.8208 58.3087 27.1995 59.0991 26.4121C59.8894 25.6247 60.5142 24.6871 60.9367 23.6545C61.3591 22.622 61.5707 21.5153 61.5588 20.3997C61.5683 19.1376 61.2971 17.8892 60.7647 16.7449C60.2324 15.6005 59.4522 14.5889 58.4808 13.7831C57.5094 12.9773 56.371 12.3976 55.1479 12.086C53.9249 11.7743 52.6479 11.7385 51.4093 11.981C50.1707 12.2236 49.0016 12.7386 47.9865 13.4886C46.9714 14.2386 46.1358 15.2049 45.5401 16.3176C44.9444 17.4303 44.6035 18.6615 44.5422 19.9221C44.4809 21.1828 44.7006 22.4413 45.1855 23.6065C45.8341 25.1652 46.9315 26.4958 48.3381 27.4293C49.7448 28.3628 51.3972 28.8569 53.0854 28.849H53.0773ZM53.0773 24.8484C52.502 24.8636 51.9297 24.7607 51.3957 24.546C50.8618 24.3313 50.3775 24.0094 49.9729 23.6002C49.1852 22.7329 48.7488 21.6033 48.7488 20.4317C48.7488 19.2601 49.1852 18.1304 49.9729 17.2631C50.3736 16.8444 50.8576 16.5141 51.3937 16.2937C51.9297 16.0732 52.506 15.9674 53.0854 15.983C53.657 15.9656 54.2262 16.0645 54.7584 16.2735C55.2907 16.4826 55.775 16.7975 56.1819 17.1992C56.9833 18.0597 57.4289 19.1918 57.4289 20.3677C57.4289 21.5435 56.9833 22.6757 56.1819 23.5361C55.7804 23.9494 55.2985 24.2762 54.766 24.4963C54.2335 24.7165 53.6616 24.8254 53.0854 24.8164L53.0773 24.8484ZM63.5591 33.2017C65.368 33.3678 67.1796 32.9135 68.6961 31.9135C70.2374 30.7272 71.3905 29.1089 72.0087 27.2648L77.8336 12.3983H73.4168L69.8883 22.376L65.7036 12.3984H61.1908L67.7519 26.8007C67.4686 27.6719 66.9272 28.4364 66.1996 28.9931C65.4108 29.4852 64.4865 29.7148 63.5591 29.6491V33.2017ZM85.2509 28.865C86.2432 28.916 87.2336 28.7308 88.1405 28.3246C89.0474 27.9185 89.845 27.303 90.4677 26.5286V28.401H94.5965V12.3984H90.4677V14.2867C89.845 13.5124 89.0474 12.8969 88.1405 12.4908C87.2336 12.0846 86.2432 11.8994 85.2509 11.9504C84.2141 11.9422 83.1876 12.1565 82.2407 12.5789C81.2938 13.0012 80.4485 13.6218 79.7619 14.3987C78.2874 16.0499 77.4724 18.186 77.4724 20.3997C77.4724 22.6134 78.2874 24.7495 79.7619 26.4007C80.4485 27.1775 81.2938 27.798 82.2407 28.2204C83.1876 28.6428 84.2141 28.8571 85.2509 28.849V28.865ZM86.051 24.9285C85.4603 24.9516 84.8713 24.8528 84.3206 24.638C83.7699 24.4232 83.2694 24.0971 82.8505 23.6802C82.4347 23.2472 82.11 22.7352 81.8956 22.1744C81.6811 21.6137 81.5814 21.0156 81.6022 20.4157C81.5799 19.8179 81.679 19.2219 81.8936 18.6635C82.1081 18.1052 82.4336 17.5961 82.8505 17.1671C83.2672 16.7461 83.7668 16.4162 84.3178 16.1986C84.8688 15.981 85.459 15.8803 86.051 15.903C86.6426 15.8832 87.232 15.9853 87.7825 16.2027C88.3331 16.4202 88.8331 16.7484 89.2515 17.1671C90.0657 18.0531 90.5176 19.2124 90.5176 20.4157C90.5176 21.6189 90.0657 22.7783 89.2515 23.6642C88.828 24.084 88.3222 24.4116 87.7658 24.6264C87.2095 24.8413 86.6148 24.9386 86.019 24.9124L86.051 24.9285ZM101.63 28.401V7.59766H97.501V28.401H101.63Z" fill="white"/>
<path d="M23.9974 12.4814C24.1132 12.4814 24.2276 12.5063 24.3327 12.5543C24.4377 12.6021 24.5311 12.672 24.6066 12.7594L30.0569 19.1116C30.1896 19.257 30.2633 19.4467 30.2634 19.6435C30.2633 19.8404 30.1896 20.0302 30.0569 20.1756L18.499 32.2368V12.4814H23.9974ZM15.3914 12.5052V32.2368L3.83383 20.1663C3.70091 20.0212 3.62711 19.8316 3.62695 19.6349C3.62695 19.4387 3.70065 19.2493 3.83383 19.1036L9.29541 12.759C9.37105 12.6718 9.46464 12.6019 9.56977 12.5541C9.67532 12.5062 9.78991 12.4814 9.90583 12.4814L15.3914 12.5052Z" fill="#36BEFF"/>
</svg>
