<svg width="119" height="42" viewBox="0 0 119 42" fill="none" xmlns="http://www.w3.org/2000/svg">
<path fill-rule="evenodd" clip-rule="evenodd" d="M26.6693 7.79072C26.6554 7.78819 26.6416 7.7869 26.6281 7.7869C26.5151 7.7869 24.2777 7.7417 24.2777 7.7417C24.2777 7.7417 22.4019 5.93369 22.2211 5.73029C22.2194 5.72852 22.2176 5.72676 22.2157 5.72502C22.1581 5.6694 22.0852 5.62996 22.01 5.61986C21.8356 5.57788 21.6362 5.60889 21.5431 5.6399C21.5431 5.6399 21.1815 5.7529 20.5939 5.9337C20.5035 5.61731 20.3453 5.2331 20.1419 4.8263C19.4865 3.5607 18.4921 2.8827 17.3169 2.8827C17.2265 2.8827 17.1587 2.88269 17.0683 2.9053C17.0523 2.88928 17.0391 2.87327 17.0268 2.85826C17.0043 2.83091 16.9845 2.8069 16.9553 2.79231C16.4355 2.2499 15.7801 1.97871 14.9891 2.00131C13.4749 2.04651 11.9607 3.1539 10.7177 5.09749C9.85895 6.47609 9.20355 8.1937 9.00015 9.52709C8.67209 9.62935 8.36251 9.72599 8.07579 9.81548C6.84204 10.2006 6.03102 10.4537 5.99435 10.4537C5.11295 10.7249 5.09035 10.7475 4.97735 11.5837C4.93215 12.2165 2.62695 30.0479 2.62695 30.0479L21.9725 33.3927L30.3571 31.3135C30.3571 31.3135 26.9445 8.19371 26.9219 8.03551C26.8838 7.902 26.7812 7.81678 26.6822 7.79344C26.6779 7.79241 26.6736 7.79151 26.6693 7.79072ZM19.6221 6.25011C19.1701 6.3857 18.6729 6.5439 18.1305 6.7247C18.1305 5.95631 18.0175 4.87151 17.6785 3.96751C18.8311 4.14831 19.3961 5.45911 19.6221 6.25011ZM17.1135 7.01851C16.0966 7.3349 14.9892 7.67389 13.8818 8.01288C14.1982 6.81508 14.7857 5.63989 15.5089 4.84889C15.7801 4.55509 16.1643 4.23869 16.5937 4.05789C17.0457 4.93929 17.1361 6.18229 17.1135 7.01851ZM15.0343 3.01831C15.3959 3.01831 15.6897 3.0861 15.9383 3.2669C15.5315 3.4703 15.1247 3.7867 14.7631 4.19351C13.7913 5.2331 13.0455 6.83771 12.7517 8.3971C12.045 8.62118 11.3515 8.83211 10.7011 9.02989C10.4988 9.09144 10.3006 9.15171 10.1075 9.2107C10.6499 6.7473 12.7065 3.0861 15.0343 3.01831ZM17.3169 12.1036L16.3451 15.7422C16.3451 15.7422 15.2603 15.245 13.9721 15.3354C12.0737 15.4484 12.0737 16.6462 12.0737 16.94C12.1183 17.582 12.8104 18.027 13.6472 18.5652C14.9313 19.3909 16.5562 20.4358 16.7067 22.7482C16.8875 25.754 15.1247 27.8106 12.5483 27.9688C9.47476 28.127 7.77976 26.319 7.77976 26.319L8.43516 23.5392C8.43516 23.5392 10.1527 24.8274 11.5087 24.737C12.3901 24.6918 12.7291 23.946 12.6839 23.4488C12.6246 22.5185 11.9239 22.0216 11.1359 21.4628C10.1244 20.7455 8.969 19.9261 8.84196 17.957C8.66116 15.019 10.5821 12.0584 14.8309 11.7872C16.4807 11.6742 17.3169 12.1036 17.3169 12.1036Z" fill="#36BEFF"/>
<path d="M41.7024 19.8547C40.7306 19.3349 40.2334 18.8829 40.2334 18.2727C40.2334 17.5043 40.934 17.0071 42.0188 17.0071C43.2844 17.0071 44.4144 17.5269 44.4144 17.5269L45.2958 14.8149C45.2958 14.8149 44.4822 14.1821 42.0866 14.1821C38.7418 14.1821 36.414 16.1031 36.414 18.7925C36.414 20.3293 37.4988 21.4819 38.9452 22.3181C40.1204 22.9735 40.5272 23.4481 40.5272 24.1487C40.5272 24.8719 39.9396 25.4595 38.8548 25.4595C37.2502 25.4595 35.7134 24.6233 35.7134 24.6233L34.7642 27.3353C34.7642 27.3353 36.1654 28.2845 38.5384 28.2845C41.9736 28.2845 44.4596 26.5895 44.4596 23.5385C44.437 21.8887 43.194 20.7135 41.7024 19.8547Z" fill="white"/>
<path d="M55.398 14.137C53.703 14.137 52.3696 14.9506 51.3526 16.171L51.3074 16.1484L52.7764 8.46436H48.957L45.228 28.036H49.0474L50.313 21.3464C50.8102 18.8152 52.121 17.2558 53.3414 17.2558C54.2002 17.2558 54.5392 17.8434 54.5392 18.6796C54.5392 19.1994 54.494 19.8548 54.381 20.3746L52.9346 28.036H56.754L58.2456 20.126C58.4038 19.2898 58.5168 18.2954 58.5168 17.6174C58.5394 15.4478 57.4094 14.137 55.398 14.137Z" fill="white"/>
<path d="M67.1951 14.1372C62.5847 14.1372 59.5337 18.2956 59.5337 22.9286C59.5337 25.8892 61.3643 28.2848 64.7995 28.2848C69.3195 28.2848 72.3705 24.2394 72.3705 19.4934C72.3931 16.7588 70.7885 14.1372 67.1951 14.1372ZM65.3193 25.3694C64.0085 25.3694 63.4661 24.262 63.4661 22.8608C63.4661 20.6686 64.5961 17.0978 66.6753 17.0978C68.0313 17.0978 68.4833 18.273 68.4833 19.403C68.4833 21.7534 67.3307 25.3694 65.3193 25.3694Z" fill="white"/>
<path d="M82.1786 14.1372C79.6022 14.1372 78.1332 16.4198 78.1332 16.4198H78.088L78.314 14.3632H74.924C74.7658 15.7418 74.4494 17.8662 74.1556 19.4482L71.4888 33.4602H75.3082L76.3704 27.7876H76.4608C76.4608 27.7876 77.2518 28.2848 78.6982 28.2848C83.1956 28.2848 86.1336 23.6744 86.1336 19.0188C86.1336 16.4424 84.981 14.1372 82.1786 14.1372ZM78.5174 25.4146C77.523 25.4146 76.9354 24.8496 76.9354 24.8496L77.5682 21.2788C78.0202 18.8832 79.2632 17.3012 80.5966 17.3012C81.7718 17.3012 82.1334 18.386 82.1334 19.403C82.1334 21.889 80.6644 25.4146 78.5174 25.4146Z" fill="white"/>
<path d="M91.6028 8.64502C90.3824 8.64502 89.4106 9.61682 89.4106 10.8598C89.4106 11.9898 90.1339 12.7808 91.2187 12.7808H91.2638C92.4616 12.7808 93.4787 11.9672 93.5013 10.566C93.5013 9.45862 92.7554 8.64502 91.6028 8.64502Z" fill="white"/>
<path d="M86.2471 28.0136H90.0665L92.6655 14.4536H88.8235L86.2471 28.0136Z" fill="white"/>
<path d="M102.406 14.431H99.7389L99.8745 13.7982C100.101 12.4874 100.869 11.3348 102.157 11.3348C102.835 11.3348 103.378 11.5382 103.378 11.5382L104.123 8.53236C104.123 8.53236 103.468 8.19336 102.044 8.19336C100.688 8.19336 99.3321 8.57756 98.2925 9.45896C96.9817 10.5664 96.3715 12.171 96.0777 13.7982L95.9647 14.431H94.1793L93.6143 17.3238H95.3997L93.3657 28.0362H97.1851L99.2191 17.3238H101.863L102.406 14.431Z" fill="white"/>
<path d="M111.627 14.4536C111.627 14.4536 109.231 20.4878 108.169 23.7874H108.124C108.056 22.7252 107.174 14.4536 107.174 14.4536H103.152L105.457 26.9062C105.502 27.1774 105.479 27.3582 105.366 27.539C104.914 28.3978 104.169 29.234 103.287 29.8442C102.564 30.364 101.75 30.703 101.118 30.929L102.18 34.1834C102.948 34.0252 104.575 33.3698 105.931 32.1042C107.672 30.477 109.299 27.9458 110.949 24.5106L115.627 14.4536H111.627Z" fill="white"/>
</svg>
