<svg width="32" height="33" viewBox="0 0 32 33" fill="none" xmlns="http://www.w3.org/2000/svg">
<path d="M31.7055 25.25L26.4907 31.5884C26.378 31.726 26.2414 31.8359 26.0895 31.9111C25.9376 31.9863 25.7736 32.0252 25.6079 32.0254H0.888107C0.770207 32.0253 0.654888 31.9863 0.55626 31.9131C0.457637 31.8398 0.379993 31.7355 0.332834 31.6131C0.285675 31.4906 0.271049 31.3551 0.290749 31.2234C0.310448 31.0916 0.363613 30.9691 0.44374 30.8712L5.65255 24.5328C5.76536 24.3952 5.90193 24.2853 6.05384 24.2101C6.20572 24.1349 6.36966 24.096 6.53541 24.0958H31.2552C31.3741 24.093 31.4912 24.1302 31.5916 24.2026C31.6919 24.2751 31.7714 24.3795 31.8194 24.5029C31.8676 24.6264 31.8823 24.7631 31.862 24.8961C31.8417 25.029 31.7873 25.1521 31.7055 25.25ZM26.4907 12.4833C26.3775 12.3462 26.2409 12.2368 26.0891 12.1617C25.9373 12.0865 25.7735 12.0473 25.6079 12.0463H0.888107C0.770207 12.0464 0.654888 12.0855 0.55626 12.1587C0.457637 12.2319 0.379993 12.3362 0.332834 12.4586C0.285675 12.5812 0.271049 12.7166 0.290749 12.8484C0.310448 12.9801 0.363613 13.1025 0.44374 13.2006L5.65255 19.5423C5.76576 19.6793 5.90246 19.7887 6.05425 19.8639C6.20605 19.939 6.36978 19.9783 6.53541 19.9792H31.2552C31.3729 19.9785 31.4877 19.939 31.586 19.8655C31.6843 19.7921 31.7614 19.6878 31.8082 19.5654C31.8549 19.443 31.8694 19.3079 31.8494 19.1764C31.8296 19.0449 31.7767 18.9228 31.6966 18.825L26.4907 12.4833ZM0.888107 7.92971H25.6079C25.7736 7.92956 25.9376 7.8906 26.0895 7.81541C26.2414 7.74023 26.378 7.63035 26.4907 7.4927L31.7055 1.15439C31.7873 1.05649 31.8417 0.933319 31.862 0.800383C31.8823 0.667449 31.8676 0.530684 31.8194 0.4073C31.7714 0.283917 31.6919 0.179427 31.5916 0.106978C31.4912 0.0345303 31.3741 -0.00263972 31.2552 0.000145849H6.53541C6.36966 0.000343619 6.20572 0.0392494 6.05384 0.114437C5.90193 0.189625 5.76536 0.299481 5.65255 0.437157L0.44374 6.77547C0.363613 6.87352 0.310448 6.99594 0.290749 7.12771C0.271049 7.25949 0.285675 7.3949 0.332834 7.51739C0.379993 7.63988 0.457637 7.74412 0.55626 7.81739C0.654888 7.89059 0.770207 7.92964 0.888107 7.92971Z" fill="url(#paint0_linear_521_544)"/>
<defs>
<linearGradient id="paint0_linear_521_544" x1="2.94809" y1="32.7893" x2="32.5423" y2="3.35713" gradientUnits="userSpaceOnUse">
<stop offset="0.08" stop-color="#9945FF"/>
<stop offset="0.3" stop-color="#8752F3"/>
<stop offset="0.5" stop-color="#5497D5"/>
<stop offset="0.6" stop-color="#43B4CA"/>
<stop offset="0.72" stop-color="#28E0B9"/>
<stop offset="0.97" stop-color="#19FB9B"/>
</linearGradient>
</defs>
</svg>
