<svg width="61" height="61" viewBox="0 0 61 61" fill="none" xmlns="http://www.w3.org/2000/svg">
<path fill-rule="evenodd" clip-rule="evenodd" d="M0 30.4996C0 47.3442 13.6549 60.9992 30.4996 60.9992C47.3442 60.9992 61 47.3442 61 30.4996C61 13.6549 47.3442 0 30.4996 0C13.6549 0 0 13.6549 0 30.4996Z" fill="#0C0C4F"/>
<path fill-rule="evenodd" clip-rule="evenodd" d="M17.0467 23.3142L17.7996 20.9882C17.9526 20.5151 18.326 20.147 18.8008 20.0017L21.1382 19.2829C21.4617 19.1841 21.4644 18.7276 21.1434 18.6236L18.8166 17.8707C18.3444 17.7177 17.9762 17.3442 17.8302 16.8694L17.1122 14.532C17.0134 14.2094 16.557 14.2058 16.4529 14.5276L15.7 16.8537C15.547 17.3259 15.1736 17.694 14.6987 17.8401L12.3613 18.558C12.0378 18.6577 12.0343 19.1132 12.3561 19.2173L14.683 19.9702C15.1552 20.1233 15.5234 20.4975 15.6694 20.9724L16.3873 23.3089C16.4861 23.6323 16.9426 23.636 17.0467 23.3142Z" fill="#FAFAFA"/>
<path fill-rule="evenodd" clip-rule="evenodd" d="M53.9919 21.9604C53.0283 20.8828 51.5246 20.2762 50.0625 20.0273C48.5888 19.7884 47.0434 19.8105 45.5886 20.069C42.6448 20.5669 39.9705 21.786 37.6378 23.2896C36.4266 24.0277 35.3936 24.8815 34.3234 25.7512C33.8078 26.1911 33.3375 26.6595 32.848 27.1212L31.5102 28.4521C30.0564 29.9718 28.6237 31.3557 27.2373 32.5029C25.8454 33.6448 24.544 34.5119 23.2616 35.1175C21.9799 35.7264 20.6085 36.0844 18.821 36.1416C17.0492 36.2041 14.953 35.8844 12.7108 35.3566C10.4565 34.831 8.08921 34.0821 5.44385 33.4375C6.36689 35.9982 7.75683 38.2611 9.54139 40.3298C11.3469 42.3626 13.6014 44.2149 16.4976 45.4334C19.3519 46.6789 22.9391 47.1259 26.2929 46.4515C29.6559 45.804 32.607 44.2481 34.9923 42.4482C37.3839 40.6302 39.3187 38.5593 40.9499 36.4062C41.4002 35.8112 41.6383 35.4784 41.9642 35.0134L42.8649 33.6793C43.4907 32.8542 44.0605 31.9146 44.6799 31.0971C45.8943 29.3847 47.092 27.6744 48.4834 26.0987C49.1838 25.2994 49.9224 24.535 50.7942 23.8003C51.2288 23.4417 51.6987 23.0908 52.2191 22.7746C52.7473 22.4335 53.3051 22.1667 53.9919 21.9604Z" fill="#EC796B"/>
<path fill-rule="evenodd" clip-rule="evenodd" d="M53.9919 21.9602C52.957 19.3481 51.0322 17.1492 48.4491 15.5267C45.8818 13.9219 42.3159 13.103 38.7821 13.8011C37.0366 14.1387 35.3453 14.7887 33.8611 15.6543C32.3838 16.5164 31.0597 17.5543 29.9137 18.6677C29.3414 19.2263 28.8222 19.809 28.3061 20.395L26.9689 22.0999L24.9035 24.8444C22.2704 28.3757 19.4348 32.514 14.7814 33.7402C10.2133 34.944 8.23199 33.8779 5.44385 33.4373C5.95367 34.7536 6.58514 36.0318 7.44122 37.1562C8.28136 38.3034 9.27373 39.3808 10.5075 40.3048C11.131 40.7484 11.7892 41.1863 12.5203 41.5576C13.2481 41.9162 14.0329 42.232 14.8706 42.4695C16.5369 42.9263 18.4129 43.0864 20.2292 42.8405C22.0464 42.598 23.7834 42.0223 25.3017 41.2575C26.8313 40.4998 28.1635 39.577 29.3532 38.6033C31.7181 36.6395 33.5577 34.4694 35.1114 32.2759C35.893 31.1792 36.6025 30.0618 37.2586 28.9441L38.0309 27.6136C38.267 27.2245 38.5057 26.8331 38.7482 26.4687C39.7269 25.0043 40.684 23.8302 41.8464 22.9488C42.9926 22.0446 44.5891 21.3767 46.7222 21.2215C48.8464 21.0644 51.2987 21.3546 53.9919 21.9602Z" fill="#FAFAFA"/>
<path fill-rule="evenodd" clip-rule="evenodd" d="M42.4995 43.664C42.4995 45.5828 44.0558 47.1387 45.974 47.1387C47.8929 47.1387 49.4468 45.5828 49.4468 43.664C49.4468 41.7457 47.8929 40.1893 45.974 40.1893C44.0558 40.1893 42.4995 41.7457 42.4995 43.664Z" fill="#EC796B"/>
</svg>
