<svg width="32" height="32" viewBox="0 0 32 32" fill="none" xmlns="http://www.w3.org/2000/svg">
<g clip-path="url(#clip0_521_571)">
<path d="M4 8V18" stroke="#36BEFF" stroke-width="3" stroke-linecap="round" stroke-linejoin="round"/>
<path d="M7 27C8.9625 23.99 12.1388 22 16 22C19.8612 22 23.0375 23.99 25 27" stroke="#36BEFF" stroke-width="3" stroke-linecap="round" stroke-linejoin="round"/>
<path d="M28 8L16 12L4 8L16 4L28 8Z" stroke="#36BEFF" stroke-width="3" stroke-linecap="round" stroke-linejoin="round"/>
<path d="M21.1675 10.2775C22.0833 11.2797 22.6879 12.5266 22.9077 13.8664C23.1274 15.2061 22.9529 16.5808 22.4052 17.8231C21.8576 19.0654 20.9605 20.1216 19.8232 20.8631C18.686 21.6047 17.3576 21.9995 16 21.9995C14.6424 21.9995 13.314 21.6047 12.1768 20.8631C11.0395 20.1216 10.1424 19.0654 9.59478 17.8231C9.04713 16.5808 8.87256 15.2061 9.09232 13.8664C9.31208 12.5266 9.91669 11.2797 10.8325 10.2775" stroke="#36BEFF" stroke-width="3" stroke-linecap="round" stroke-linejoin="round"/>
</g>
<defs>
<clipPath id="clip0_521_571">
<rect width="32" height="32" fill="white"/>
</clipPath>
</defs>
</svg>
