<svg width="19" height="18" viewBox="0 0 19 18" fill="none" xmlns="http://www.w3.org/2000/svg">
<g clip-path="url(#clip0_521_668)">
<path fill-rule="evenodd" clip-rule="evenodd" d="M14.2497 16.5655C14.4893 16.7267 14.798 16.767 15.0733 16.668C15.3486 16.5683 15.551 16.345 15.612 16.0743C16.2586 13.1875 17.827 5.88084 18.4156 3.25491C18.4602 3.05699 18.3858 2.8513 18.2221 2.71912C18.0584 2.58694 17.8315 2.54877 17.6291 2.62016C14.5093 3.71719 4.90145 7.14185 0.974371 8.52232C0.725115 8.60997 0.562912 8.83757 0.571097 9.08709C0.580025 9.33731 0.757109 9.55432 1.01232 9.62712C2.77348 10.1276 5.08523 10.8238 5.08523 10.8238C5.08523 10.8238 6.16559 13.9233 6.72884 15.4996C6.79952 15.6975 6.96247 15.853 7.1775 15.9067C7.39178 15.9597 7.62095 15.9039 7.78092 15.7604C8.68568 14.949 10.0845 13.6943 10.0845 13.6943C10.0845 13.6943 12.7422 15.5455 14.2497 16.5655ZM6.0577 10.4322L7.30696 14.3467L7.58449 11.8678C7.58449 11.8678 12.4111 7.73207 15.1626 5.37474C15.243 5.30547 15.2541 5.18955 15.1872 5.10826C15.1209 5.02697 14.9989 5.00789 14.9074 5.06302C11.7184 6.99766 6.0577 10.4322 6.0577 10.4322Z" fill="white"/>
</g>
<defs>
<clipPath id="clip0_521_668">
<rect width="17.8571" height="16.9643" fill="white" transform="translate(0.571289 0.464233)"/>
</clipPath>
</defs>
</svg>
