<svg width="32" height="32" viewBox="0 0 32 32" fill="none" xmlns="http://www.w3.org/2000/svg">
<g clip-path="url(#clip0_521_173)">
<path d="M15.6383 32C24.2071 32 31.1535 24.8366 31.1535 16C31.1535 7.16344 24.2071 0 15.6383 0C7.06946 0 0.123047 7.16344 0.123047 16C0.123047 24.8366 7.06946 32 15.6383 32Z" fill="url(#paint0_linear_521_173)"/>
<path opacity="0.8" fill-rule="evenodd" clip-rule="evenodd" d="M15.6378 28.7181C22.449 28.7181 27.9705 23.0241 27.9705 16.0002C27.9705 8.97625 22.449 3.28223 15.6378 3.28223C8.82669 3.28223 3.30518 8.97625 3.30518 16.0002C3.30518 23.0241 8.82669 28.7181 15.6378 28.7181ZM15.6379 27.0767C21.5702 27.0767 26.3792 22.1174 26.3792 15.9998C26.3792 9.88216 21.5702 4.92285 15.6379 4.92285C9.70569 4.92285 4.89658 9.88216 4.89658 15.9998C4.89658 22.1174 9.70569 27.0767 15.6379 27.0767Z" fill="white"/>
<path opacity="0.4" d="M15.6378 27.0767C21.5701 27.0767 26.3792 22.1174 26.3792 15.9998C26.3792 9.88221 21.5701 4.92291 15.6378 4.92291C9.70554 4.92291 4.89648 9.88221 4.89648 15.9998C4.89648 22.1174 9.70554 27.0767 15.6378 27.0767Z" fill="white"/>
<path opacity="0.4" d="M20.8096 10.667H10.4661C10.0266 10.667 9.67041 11.0343 9.67041 11.4875V11.4875C9.67041 11.9407 10.0266 12.308 10.4661 12.308H20.8096C21.249 12.308 21.6052 11.9407 21.6052 11.4875C21.6052 11.0343 21.249 10.667 20.8096 10.667Z" fill="white"/>
<path opacity="0.4" d="M20.8096 14.7695H10.4661C10.0266 14.7695 9.67041 15.1368 9.67041 15.59V15.59C9.67041 16.0431 10.0266 16.4105 10.4661 16.4105H20.8096C21.249 16.4105 21.6052 16.0431 21.6052 15.59C21.6052 15.1368 21.249 14.7695 20.8096 14.7695Z" fill="white"/>
<path opacity="0.4" d="M20.8096 18.8721H10.4661C10.0266 18.8721 9.67041 19.2394 9.67041 19.6926V19.6926C9.67041 20.1457 10.0266 20.5131 10.4661 20.5131H20.8096C21.249 20.5131 21.6052 20.1457 21.6052 19.6926C21.6052 19.2394 21.249 18.8721 20.8096 18.8721Z" fill="white"/>
</g>
<defs>
<linearGradient id="paint0_linear_521_173" x1="-3.56815" y1="-6.49505" x2="56.9066" y2="34.613" gradientUnits="userSpaceOnUse">
<stop offset="0.11138" stop-color="#FF9029"/>
<stop offset="0.857227" stop-color="#FBF67D"/>
</linearGradient>
<clipPath id="clip0_521_173">
<rect width="32" height="32" fill="white"/>
</clipPath>
</defs>
</svg>
