<svg width="32" height="32" viewBox="0 0 32 32" fill="none" xmlns="http://www.w3.org/2000/svg">
<g clip-path="url(#clip0_521_164)">
<path d="M31.1533 16C31.1533 24.8366 24.207 32 15.6382 32C7.06942 32 0.123047 24.8366 0.123047 16C0.123047 7.16344 7.06942 0 15.6382 0C24.207 0 31.1533 7.16344 31.1533 16Z" fill="url(#paint0_linear_521_164)"/>
<path opacity="0.3" d="M23.396 12H7.8808C6.8097 12 5.94141 12.8954 5.94141 14V22C5.94141 23.1046 6.8097 24 7.8808 24H23.396C24.4671 24 25.3353 23.1046 25.3353 22V14C25.3353 12.8954 24.4671 12 23.396 12Z" fill="url(#paint1_linear_521_164)"/>
<path opacity="0.6" d="M23.396 8H7.8808C6.8097 8 5.94141 8.89543 5.94141 10V18C5.94141 19.1046 6.8097 20 7.8808 20H23.396C24.4671 20 25.3353 19.1046 25.3353 18V10C25.3353 8.89543 24.4671 8 23.396 8Z" fill="url(#paint2_linear_521_164)"/>
<path d="M23.396 8H7.8808C6.8097 8 5.94141 8.89543 5.94141 10V14C5.94141 15.1046 6.8097 16 7.8808 16H23.396C24.4671 16 25.3353 15.1046 25.3353 14V10C25.3353 8.89543 24.4671 8 23.396 8Z" fill="url(#paint3_linear_521_164)"/>
</g>
<defs>
<linearGradient id="paint0_linear_521_164" x1="0.123047" y1="0" x2="38.7914" y2="27.5748" gradientUnits="userSpaceOnUse">
<stop offset="0.24238" stop-color="#7694FF"/>
<stop offset="1" stop-color="#5214E8"/>
</linearGradient>
<linearGradient id="paint1_linear_521_164" x1="25.3353" y1="24" x2="7.15353" y2="24" gradientUnits="userSpaceOnUse">
<stop stop-color="white"/>
<stop offset="1" stop-color="white" stop-opacity="0"/>
</linearGradient>
<linearGradient id="paint2_linear_521_164" x1="25.3353" y1="20" x2="7.15353" y2="20" gradientUnits="userSpaceOnUse">
<stop stop-color="white"/>
<stop offset="1" stop-color="white" stop-opacity="0"/>
</linearGradient>
<linearGradient id="paint3_linear_521_164" x1="25.3353" y1="16" x2="7.15353" y2="16" gradientUnits="userSpaceOnUse">
<stop stop-color="white"/>
<stop offset="1" stop-color="white" stop-opacity="0"/>
</linearGradient>
<clipPath id="clip0_521_164">
<rect width="32" height="32" fill="white"/>
</clipPath>
</defs>
</svg>
