<svg width="32" height="32" viewBox="0 0 32 32" fill="none" xmlns="http://www.w3.org/2000/svg">
<g clip-path="url(#clip0_521_184)">
<path opacity="0.8" d="M8.27935 22.8056C8.8939 23.5603 9.57951 24.0184 10.0734 24.2871C10.3012 24.4103 10.5763 24.2499 10.5955 23.9859C10.6316 23.4986 10.6823 23.0963 10.7782 22.6904C10.9778 21.8939 11.0364 21.6403 11.5055 20.7705C11.9194 20.0321 12.3467 19.5193 12.6873 19.1134C13.0042 18.7355 13.4868 18.1668 14.1949 17.5761C14.566 17.2912 15.4635 16.5225 15.8954 16.1585C15.9924 16.0818 16.2055 15.9108 16.3758 15.7573C16.9137 15.2864 17.8519 14.2398 18.2815 13.649C18.8882 12.8536 19.001 12.5129 19.1047 12.5129C19.3009 12.5769 19.187 13.0002 18.3345 14.52C18.0921 14.948 17.6996 15.5643 17.305 16.055C16.6825 16.8353 15.4274 17.9517 14.8264 18.4843C13.7462 19.4809 13.0312 20.4891 12.5576 21.2903C12.2407 21.838 12.0964 22.1974 12.0604 22.2916C12.0231 22.3869 11.8641 22.8009 11.7649 23.2777C11.086 26.2895 11.9881 26.4058 15.3665 25.4546C16.5168 25.1534 17.4448 24.8255 18.0706 24.5859C21.9824 22.4509 23.6175 17.4238 22.9127 11.0675C22.9149 10.914 22.6376 7.94396 22.2305 6.42641C22.1561 6.1508 21.8223 6.06126 21.6284 6.26477C20.4353 7.51137 19.3099 8.28003 18.4721 8.76147C16.2844 10.0174 15.22 9.79643 11.6059 11.564C8.74619 12.899 6.52136 15.2596 6.77282 18.9367C6.80213 19.7809 7.30056 21.6648 8.27935 22.8056Z" fill="white"/>
<path d="M18.8101 19.4446L19.9558 17.284C20.17 16.8793 20.7339 16.8793 20.9481 17.284L22.0938 19.4446C22.1457 19.5423 22.2235 19.6225 22.3182 19.676L24.4133 20.8575C24.8058 21.0785 24.8058 21.6599 24.4133 21.8808L22.3182 23.0623C22.2235 23.1158 22.1457 23.1961 22.0938 23.2937L20.9481 25.4544C20.7339 25.859 20.17 25.859 19.9558 25.4544L18.8101 23.2937C18.7583 23.1961 18.6805 23.1158 18.5857 23.0623L16.4906 21.8808C16.0982 21.6599 16.0982 21.0785 16.4906 20.8575L18.5857 19.676C18.6805 19.6225 18.7583 19.5423 18.8101 19.4446Z" fill="white"/>
<path d="M15.6382 32C24.207 32 31.1534 24.8366 31.1534 16C31.1534 7.16344 24.207 0 15.6382 0C7.06942 0 0.123047 7.16344 0.123047 16C0.123047 24.8366 7.06942 32 15.6382 32Z" fill="url(#paint0_linear_521_184)"/>
<path opacity="0.75" d="M19.7785 22.8442L14.021 17.1542C13.3843 16.5249 13.3843 15.4753 14.021 14.8461L19.7785 9.15607C20.7641 8.18204 22.401 8.9024 22.401 10.3101V21.6902C22.401 23.0979 20.7641 23.8183 19.7785 22.8442Z" fill="white"/>
<path opacity="0.75" d="M11.4975 9.15572L17.255 14.8458C17.8918 15.4751 17.8918 16.5247 17.255 17.1539L11.4975 22.844C10.5119 23.818 8.875 23.0976 8.875 21.6899L8.87501 10.3098C8.87501 8.90204 10.5119 8.18168 11.4975 9.15572Z" fill="white"/>
</g>
<defs>
<linearGradient id="paint0_linear_521_184" x1="-3.56803" y1="-6.49505" x2="56.9065" y2="34.6125" gradientUnits="userSpaceOnUse">
<stop offset="0.11138" stop-color="#F13690"/>
<stop offset="0.857227" stop-color="#F878FC"/>
</linearGradient>
<clipPath id="clip0_521_184">
<rect width="32" height="32" fill="white"/>
</clipPath>
</defs>
</svg>
