<svg width="17" height="15" viewBox="0 0 17 15" fill="none" xmlns="http://www.w3.org/2000/svg">
<path d="M16.8332 2.33112C16.22 2.60312 15.5609 2.78687 14.8693 2.86953C15.5753 2.44637 16.1175 1.77628 16.3728 0.977783C15.712 1.3697 14.9803 1.6542 14.2013 1.80753C13.5777 1.14295 12.689 0.727783 11.7055 0.727783C9.81717 0.727783 8.28609 2.2587 8.28609 4.14703C8.28609 4.41503 8.31634 4.67603 8.37459 4.92628C5.53275 4.7837 3.01325 3.42237 1.32675 1.35362C1.03242 1.85862 0.863754 2.44595 0.863754 3.07262C0.863754 4.25895 1.46742 5.30553 2.38492 5.9187C1.82442 5.90095 1.29717 5.74712 0.83617 5.49103C0.835837 5.50528 0.835837 5.51962 0.835837 5.53403C0.835837 7.1907 2.0145 8.5727 3.57875 8.88687C3.29184 8.96503 2.98975 9.00678 2.67792 9.00678C2.45759 9.00678 2.24342 8.98528 2.03459 8.94545C2.46975 10.3039 3.7325 11.2925 5.22884 11.32C4.05859 12.2372 2.58425 12.7838 0.98217 12.7838C0.70617 12.7838 0.434004 12.7676 0.166504 12.7359C1.67975 13.7062 3.47709 14.2724 5.40809 14.2724C11.6975 14.2724 15.1369 9.06203 15.1369 4.54345C15.1369 4.3952 15.1336 4.24778 15.127 4.10103C15.7951 3.61903 16.3748 3.01678 16.8332 2.33112Z" fill="white"/>
</svg>
