<svg width="123" height="42" viewBox="0 0 123 42" fill="none" xmlns="http://www.w3.org/2000/svg">
<path fill-rule="evenodd" clip-rule="evenodd" d="M19.3306 4.1377C28.5558 4.1377 36.0343 11.6162 36.0343 20.8414C36.0343 30.0666 28.5558 37.5451 19.3306 37.5451C10.1054 37.5451 2.62695 30.0666 2.62695 20.8414C2.62695 11.6162 10.1054 4.1377 19.3306 4.1377ZM24.7162 16.6318L12.9389 16.6899L10.1101 20.881L16.7414 20.8835L13.8772 25.1031L25.7309 25.0272L28.5509 20.849L21.8964 20.8813L24.7162 16.6318Z" fill="#36BEFF"/>
<path d="M47.6836 27.4485V24.3721L54.6888 15.7455H47.8499V12.7314H59.1371V15.5792L51.9657 24.3721H59.2827V27.4485H47.6836ZM67.2658 22.9378H66.8293C66.4551 22.9378 66.074 22.9586 65.686 23.0001C65.3119 23.0279 64.9723 23.0903 64.6675 23.1872C64.3765 23.2842 64.1338 23.4297 63.9399 23.6237C63.7459 23.8038 63.6489 24.0464 63.6489 24.3513C63.6489 24.5453 63.6905 24.7116 63.7736 24.8502C63.8706 24.9887 63.9883 25.0996 64.127 25.1827C64.2655 25.2659 64.4249 25.3282 64.6051 25.3698C64.7852 25.3976 64.9585 25.4114 65.1248 25.4114C65.8176 25.4114 66.3442 25.2243 66.7046 24.8502C67.0787 24.4622 67.2658 23.9425 67.2658 23.2911V22.9378ZM61.009 18.5102C61.6186 17.9281 62.3254 17.4916 63.1292 17.2006C63.9468 16.9096 64.7782 16.7641 65.6237 16.7641C66.4967 16.7641 67.2311 16.875 67.8271 17.0967C68.4367 17.3045 68.9288 17.6371 69.3029 18.0944C69.6771 18.5379 69.9473 19.106 70.1136 19.799C70.2937 20.4779 70.3838 21.2886 70.3838 22.231V27.4485H67.2658V26.3468H67.2035C66.9401 26.7763 66.5383 27.1089 65.9978 27.3446C65.4712 27.5802 64.8961 27.6979 64.2725 27.6979C63.8568 27.6979 63.4271 27.6426 62.9837 27.5316C62.5402 27.4207 62.1315 27.2406 61.7573 26.9912C61.397 26.7417 61.099 26.4092 60.8635 25.9934C60.6279 25.5777 60.5101 25.065 60.5101 24.4552C60.5101 23.7069 60.711 23.1041 61.1129 22.6467C61.5287 22.1894 62.0552 21.8361 62.6927 21.5866C63.3439 21.3372 64.0647 21.1709 64.8546 21.0877C65.6445 21.0046 66.4136 20.963 67.1619 20.963V20.7967C67.1619 20.284 66.9816 19.9099 66.6214 19.6742C66.2611 19.4248 65.8176 19.3001 65.2911 19.3001C64.806 19.3001 64.3349 19.404 63.8776 19.6119C63.4341 19.8197 63.0529 20.0692 62.7343 20.3602L61.009 18.5102ZM84.444 22.231C84.444 22.9516 84.3333 23.6445 84.1114 24.3097C83.8898 24.9749 83.5642 25.5639 83.1345 26.0766C82.7187 26.5755 82.206 26.9774 81.5962 27.2822C80.9866 27.587 80.2937 27.7395 79.5176 27.7395C78.8801 27.7395 78.2773 27.6148 77.7091 27.3654C77.141 27.1021 76.6975 26.7487 76.3788 26.3052H76.3372V32.4373H72.9281V17.0967H76.1709V18.3647H76.2333C76.552 17.9489 76.9886 17.5886 77.5428 17.2838C78.111 16.965 78.7762 16.8057 79.5384 16.8057C80.2867 16.8057 80.9658 16.9512 81.5755 17.2422C82.1853 17.5332 82.6979 17.9281 83.1137 18.427C83.5434 18.9259 83.869 19.5079 84.0907 20.1731C84.3263 20.8245 84.444 21.5105 84.444 22.231ZM81.1389 22.231C81.1389 21.8984 81.0836 21.5728 80.9726 21.254C80.8757 20.9353 80.7232 20.6582 80.5153 20.4226C80.3214 20.1731 80.072 19.9722 79.767 19.8197C79.4622 19.6673 79.1088 19.5911 78.7069 19.5911C78.3189 19.5911 77.9725 19.6673 77.6675 19.8197C77.3627 19.9722 77.0995 20.1731 76.8776 20.4226C76.6698 20.672 76.5035 20.956 76.3788 21.2748C76.268 21.5936 76.2125 21.9192 76.2125 22.2518C76.2125 22.5844 76.268 22.91 76.3788 23.2288C76.5035 23.5476 76.6698 23.8316 76.8776 24.081C77.0995 24.3305 77.3627 24.5314 77.6675 24.6839C77.9725 24.8363 78.3189 24.9125 78.7069 24.9125C79.1088 24.9125 79.4622 24.8363 79.767 24.6839C80.072 24.5314 80.3214 24.3305 80.5153 24.081C80.7232 23.8316 80.8757 23.5476 80.9726 23.2288C81.0836 22.8962 81.1389 22.5636 81.1389 22.231ZM98.1057 22.231C98.1057 22.9516 97.9948 23.6445 97.7731 24.3097C97.5515 24.9749 97.2257 25.5639 96.7961 26.0766C96.3804 26.5755 95.8677 26.9774 95.2579 27.2822C94.6481 27.587 93.9553 27.7395 93.1792 27.7395C92.5418 27.7395 91.939 27.6148 91.3708 27.3654C90.8026 27.1021 90.3592 26.7487 90.0404 26.3052H89.9989V32.4373H86.5898V17.0967H89.8326V18.3647H89.8949C90.2137 17.9489 90.6502 17.5886 91.2045 17.2838C91.7727 16.965 92.4379 16.8057 93.2 16.8057C93.9484 16.8057 94.6273 16.9512 95.2371 17.2422C95.8469 17.5332 96.3596 17.9281 96.7754 18.427C97.2049 18.9259 97.5307 19.5079 97.7523 20.1731C97.988 20.8245 98.1057 21.5105 98.1057 22.231ZM94.8006 22.231C94.8006 21.8984 94.7452 21.5728 94.6343 21.254C94.5374 20.9353 94.3849 20.6582 94.177 20.4226C93.9829 20.1731 93.7335 19.9722 93.4287 19.8197C93.1239 19.6673 92.7705 19.5911 92.3686 19.5911C91.9806 19.5911 91.634 19.6673 91.3292 19.8197C91.0244 19.9722 90.761 20.1731 90.5393 20.4226C90.3314 20.672 90.1652 20.956 90.0404 21.2748C89.9295 21.5936 89.8741 21.9192 89.8741 22.2518C89.8741 22.5844 89.9295 22.91 90.0404 23.2288C90.1652 23.5476 90.3314 23.8316 90.5393 24.081C90.761 24.3305 91.0244 24.5314 91.3292 24.6839C91.634 24.8363 91.9806 24.9125 92.3686 24.9125C92.7705 24.9125 93.1239 24.8363 93.4287 24.6839C93.7335 24.5314 93.9829 24.3305 94.177 24.081C94.3849 23.8316 94.5374 23.5476 94.6343 23.2288C94.7452 22.8962 94.8006 22.5636 94.8006 22.231ZM107.381 21.0877C107.381 20.5473 107.208 20.083 106.862 19.695C106.529 19.3071 106.023 19.113 105.344 19.113C105.012 19.113 104.707 19.1684 104.43 19.2793C104.153 19.3762 103.91 19.5149 103.702 19.695C103.494 19.8751 103.328 20.09 103.203 20.3394C103.079 20.575 103.009 20.8245 102.995 21.0877H107.381ZM110.52 22.3973C110.52 22.5358 110.52 22.6745 110.52 22.813C110.52 22.9516 110.513 23.0833 110.499 23.208H102.995C103.023 23.499 103.106 23.7623 103.245 23.9979C103.397 24.2335 103.584 24.4414 103.806 24.6215C104.042 24.7878 104.298 24.9195 104.575 25.0164C104.866 25.1134 105.164 25.162 105.469 25.162C106.01 25.162 106.467 25.065 106.841 24.8709C107.215 24.6631 107.52 24.3998 107.756 24.081L110.125 25.5777C109.64 26.2844 108.996 26.8319 108.192 27.2198C107.402 27.594 106.481 27.7811 105.428 27.7811C104.651 27.7811 103.917 27.6633 103.224 27.4277C102.531 27.1783 101.922 26.8249 101.395 26.3676C100.882 25.8965 100.473 25.3213 100.168 24.6423C99.8773 23.9633 99.7318 23.1872 99.7318 22.3142C99.7318 21.4689 99.8773 20.7066 100.168 20.0276C100.459 19.3347 100.854 18.7527 101.353 18.2815C101.852 17.7965 102.441 17.4223 103.12 17.159C103.799 16.8957 104.534 16.7641 105.324 16.7641C106.086 16.7641 106.786 16.8957 107.423 17.159C108.06 17.4085 108.608 17.7757 109.065 18.2607C109.523 18.7458 109.876 19.3347 110.125 20.0276C110.389 20.7206 110.52 21.5105 110.52 22.3973ZM119.348 19.8821C119.196 19.8405 119.044 19.8128 118.891 19.799C118.753 19.7851 118.614 19.7782 118.475 19.7782C118.018 19.7782 117.63 19.8613 117.311 20.0276C117.007 20.1939 116.757 20.3948 116.563 20.6304C116.383 20.8661 116.251 21.1223 116.168 21.3995C116.085 21.6767 116.043 21.9192 116.043 22.1271V27.4485H112.634V17.0967H115.919V18.5933H115.96C116.224 18.0667 116.598 17.6371 117.083 17.3045C117.568 16.972 118.129 16.8057 118.766 16.8057C118.905 16.8057 119.037 16.8126 119.161 16.8264C119.3 16.8403 119.411 16.8611 119.494 16.8888L119.348 19.8821Z" fill="white"/>
</svg>
