<svg width="142" height="42" viewBox="0 0 142 42" fill="none" xmlns="http://www.w3.org/2000/svg">
<mask id="mask0_521_102" style="mask-type:luminance" maskUnits="userSpaceOnUse" x="0" y="4" width="142" height="34">
<path d="M141.627 4.41211H0.626953V37.5886H141.627V4.41211Z" fill="white"/>
</mask>
<g mask="url(#mask0_521_102)">
<path fill-rule="evenodd" clip-rule="evenodd" d="M0.626953 13.294C0.626953 10.185 0.626953 8.63057 1.23199 7.4431C1.76421 6.39858 2.61343 5.54937 3.65795 5.01715C4.84541 4.41211 6.39989 4.41211 9.50887 4.41211H25.0439C28.1529 4.41211 29.7073 4.41211 30.8948 5.01715C31.9394 5.54937 32.7885 6.39858 33.3208 7.4431C33.9258 8.63057 33.9258 10.185 33.9258 13.294V28.7067C33.9258 31.8156 33.9258 33.3701 33.3208 34.5576C32.7885 35.6021 31.9394 36.4513 30.8948 36.9835C29.7073 37.5886 28.1529 37.5886 25.0439 37.5886H9.50887C6.39989 37.5886 4.84541 37.5886 3.65795 36.9835C2.61343 36.4513 1.76421 35.6021 1.23199 34.5576C0.626953 33.3701 0.626953 31.8156 0.626953 28.7067V13.294ZM7.84914 12.7078C7.27847 12.7078 7.0586 13.4108 7.53743 13.7045L19.5164 20.9008C19.815 21.0839 20.2132 21.0116 20.4188 20.7368L25.6856 13.8478C26.0437 13.3692 25.6819 12.7078 25.0621 12.7078H7.84914ZM26.9942 28.2956C27.4729 28.5892 27.2474 29.2961 26.6768 29.2961H9.47687C8.85712 29.2961 8.48401 28.6395 8.84202 28.161L14.1191 21.2733C14.3246 20.9986 14.7132 20.917 15.0118 21.1002L26.9942 28.2956Z" fill="#36BEFF"/>
<path d="M44.9819 28.5958L52.7325 15.7715H45.8457V12.9316H57.9374V13.3599L50.346 26.1842H57.6646V29.0466H44.9819V28.5958Z" fill="white"/>
<path d="M61.9526 12.9316H72.5443V15.7715H65.612V19.5354H71.1578V22.1949H65.612V26.2068H72.9079V29.0466H61.9526V12.9316Z" fill="white"/>
<path d="M77.168 12.9316H82.9866C83.9414 12.9316 84.8048 13.0293 85.5778 13.2247C86.3509 13.42 87.0094 13.7205 87.5552 14.1262C88.1009 14.5319 88.5173 15.0427 88.8051 15.6588C89.1078 16.2748 89.2596 16.9961 89.2596 17.8225V17.9127C89.2596 18.5287 89.1767 19.0696 89.0099 19.5354C88.8432 20.0012 88.6085 20.4069 88.3049 20.7525C88.0022 21.0981 87.6464 21.3911 87.2367 21.6315C86.8278 21.8719 86.3882 22.0597 85.9187 22.1949L90.2143 29.0466H86.3052L82.4184 22.826H80.8274V29.0466H77.168V12.9316ZM82.8957 20.3468C83.8203 20.3468 84.5096 20.1514 84.9641 19.7608C85.4335 19.3701 85.6682 18.7917 85.6682 18.0253V17.9352C85.6682 17.1088 85.4261 16.5378 84.9417 16.2222C84.4714 15.8917 83.7896 15.7264 82.8957 15.7264H80.8274V20.3468H82.8957Z" fill="white"/>
<path d="M94.0869 12.9316H97.7919V29.0466H94.0869V12.9316Z" fill="white"/>
<path d="M109.999 26.3869C110.681 26.3869 111.294 26.2591 111.84 26.0037C112.401 25.7482 112.878 25.3877 113.272 24.9219C113.651 24.4711 113.946 23.9151 114.158 23.254C114.371 22.5929 114.476 21.8566 114.476 21.0452V20.865C114.476 20.0836 114.371 19.3699 114.158 18.7238C113.961 18.0777 113.673 17.5218 113.294 17.056C112.9 16.5902 112.423 16.2296 111.862 15.9741C111.302 15.7186 110.666 15.591 109.953 15.591C109.242 15.591 108.605 15.7186 108.044 15.9741C107.499 16.2145 107.029 16.5601 106.635 17.0109C106.241 17.4767 105.938 18.0402 105.726 18.7013C105.529 19.3473 105.43 20.0761 105.43 20.8875V21.0678C105.43 21.8942 105.544 22.6379 105.771 23.2991C105.999 23.9452 106.317 24.4937 106.726 24.9444C107.12 25.4102 107.597 25.7708 108.158 26.0262C108.718 26.2666 109.332 26.3869 109.999 26.3869ZM109.931 29.2943C108.658 29.2943 107.506 29.0914 106.475 28.6858C105.445 28.2651 104.574 27.6866 103.862 26.9503C103.135 26.229 102.574 25.3651 102.18 24.3584C101.786 23.3516 101.589 22.2623 101.589 21.0903V20.91C101.589 19.7079 101.793 18.6036 102.203 17.5968C102.627 16.5902 103.218 15.7262 103.976 15.0049C104.718 14.2838 105.597 13.7203 106.612 13.3146C107.628 12.9089 108.741 12.7061 109.953 12.7061C111.181 12.7061 112.302 12.9014 113.317 13.292C114.347 13.6827 115.234 14.2312 115.976 14.9373C116.704 15.6586 117.272 16.515 117.681 17.5067C118.105 18.4984 118.318 19.6028 118.318 20.8199V21.0002C118.318 22.2022 118.113 23.3141 117.704 24.3358C117.31 25.3426 116.749 26.214 116.022 26.9503C115.295 27.6866 114.415 28.2651 113.385 28.6858C112.355 29.0914 111.203 29.2943 109.931 29.2943Z" fill="white"/>
<path d="M122.305 12.9316H126.578L132.76 23.5473V12.9316H136.033V29.0466H132.352L125.578 17.5746V29.0466H122.305V12.9316Z" fill="white"/>
</g>
</svg>
