<svg width="29" height="32" viewBox="0 0 29 32" fill="none" xmlns="http://www.w3.org/2000/svg">
<path fill-rule="evenodd" clip-rule="evenodd" d="M24.6693 5.79072C24.6554 5.78819 24.6416 5.7869 24.6281 5.7869C24.5151 5.7869 22.2777 5.7417 22.2777 5.7417C22.2777 5.7417 20.4019 3.93369 20.2211 3.73029C20.2194 3.72852 20.2176 3.72676 20.2157 3.72502C20.1581 3.6694 20.0852 3.62996 20.01 3.61986C19.8356 3.57788 19.6362 3.60889 19.5431 3.6399C19.5431 3.6399 19.1815 3.7529 18.5939 3.9337C18.5035 3.61731 18.3453 3.2331 18.1419 2.8263C17.4865 1.5607 16.4921 0.882695 15.3169 0.882695C15.2265 0.882695 15.1587 0.882695 15.0683 0.905305C15.0523 0.889285 15.0391 0.873275 15.0268 0.858265C15.0043 0.830915 14.9845 0.806895 14.9553 0.792305C14.4355 0.249895 13.7801 -0.0212948 12.9891 0.00130518C11.4749 0.0465052 9.96072 1.1539 8.71772 3.09749C7.85895 4.47609 7.20355 6.1937 7.00015 7.52709C6.67209 7.62935 6.36251 7.72599 6.07579 7.81548C4.84204 8.20061 4.03102 8.4537 3.99435 8.4537C3.11295 8.7249 3.09035 8.7475 2.97735 9.5837C2.93215 10.2165 0.626953 28.0479 0.626953 28.0479L19.9725 31.3927L28.3571 29.3135C28.3571 29.3135 24.9445 6.19371 24.9219 6.03551C24.8838 5.902 24.7812 5.81678 24.6822 5.79344C24.6779 5.79241 24.6736 5.79151 24.6693 5.79072ZM17.6221 4.25011C17.1701 4.3857 16.6729 4.5439 16.1305 4.7247C16.1305 3.95631 16.0175 2.87151 15.6785 1.96751C16.8311 2.14831 17.3961 3.45911 17.6221 4.25011ZM15.1135 5.01851C14.0966 5.3349 12.9892 5.67389 11.8818 6.01288C12.1982 4.81508 12.7857 3.63989 13.5089 2.84889C13.7801 2.55509 14.1643 2.23869 14.5937 2.05789C15.0457 2.93929 15.1361 4.18229 15.1135 5.01851ZM13.0343 1.01831C13.3959 1.01831 13.6897 1.0861 13.9383 1.2669C13.5315 1.4703 13.1247 1.7867 12.7631 2.19351C11.7913 3.2331 11.0455 4.83771 10.7517 6.3971C10.045 6.62118 9.35152 6.83211 8.70112 7.02989C8.49882 7.09144 8.30062 7.15171 8.10752 7.2107C8.64992 4.7473 10.7065 1.0861 13.0343 1.01831ZM15.3169 10.1036L14.3451 13.7422C14.3451 13.7422 13.2603 13.245 11.9721 13.3354C10.0737 13.4484 10.0737 14.6462 10.0737 14.94C10.1183 15.582 10.8104 16.027 11.6472 16.5652C12.9313 17.3909 14.5562 18.4358 14.7067 20.7482C14.8875 23.754 13.1247 25.8106 10.5483 25.9688C7.47476 26.127 5.77976 24.319 5.77976 24.319L6.43516 21.5392C6.43516 21.5392 8.15272 22.8274 9.50872 22.737C10.3901 22.6918 10.7291 21.946 10.6839 21.4488C10.6246 20.5185 9.92392 20.0216 9.13592 19.4628C8.12442 18.7455 6.969 17.9261 6.84196 15.957C6.66116 13.019 8.58212 10.0584 12.8309 9.7872C14.4807 9.6742 15.3169 10.1036 15.3169 10.1036Z" fill="#36BEFF"/>
</svg>
